<?xml version="1.0" standalone="no"?>
<!DOCTYPE svg PUBLIC "-//W3C//DTD SVG 1.1//EN" "http://www.w3.org/Graphics/SVG/1.1/DTD/svg11.dtd" >
<svg>
<metadata>
Created by FontForge 20090914 at Fri Mar 10 06:27:49 2017
 By www-data
Copyright 1990-1993 Bitstream Inc.  All rights reserved.
</metadata>
<defs>
<font id="FuturaBT-BoldCondensed" horiz-adv-x="901" >
  <font-face 
    font-family="Futura BdCn BT"
    font-weight="400"
    font-stretch="condensed"
    units-per-em="2048"
    panose-1="2 11 7 6 2 2 4 2 2 4"
    ascent="1638"
    descent="-410"
    x-height="981"
    cap-height="1460"
    bbox="-342 -483 2286 1972"
    underline-thickness="248"
    underline-position="-97"
    unicode-range="U+0020-U+F002"
  />
<missing-glyph horiz-adv-x="1229" 
d="M102 -362v1806h1024v-1806h-1024zM217 -248h795v1577h-795v-1577z" />
    <glyph glyph-name=".notdef" horiz-adv-x="1229" 
d="M102 -362v1806h1024v-1806h-1024zM217 -248h795v1577h-795v-1577z" />
    <glyph glyph-name="space" unicode=" " horiz-adv-x="451" 
 />
    <glyph glyph-name="exclam" unicode="!" horiz-adv-x="563" 
d="M145 428v1032h275v-1032h-275zM459 158c0 -50.667 -16.832 -92.667 -50.499 -126s-75.5 -50 -125.5 -50s-92 16.667 -126 50s-51 75.333 -51 126c0 50 17.167 91.833 51.5 125.5s76.166 50.5 125.499 50.5s91 -16.833 125 -50.5s51 -75.5 51 -125.5z" />
    <glyph glyph-name="quotedbl" unicode="&#x22;" horiz-adv-x="643" 
d="M395 1436h164v-557h-164v557zM86 1436h164v-557h-164v557z" />
    <glyph glyph-name="numbersign" unicode="#" horiz-adv-x="1575" 
d="M709 852l-91 -254h256l91 254h-256zM735 1460h191l-154 -436h250l156 436h190l-154 -436h291l-59 -172h-293l-90 -252h309l-61 -172h-307l-156 -434h-191l156 434h-252l-158 -434h-190l156 434h-299l61 172h297l90 252h-315l61 172h316z" />
    <glyph glyph-name="dollar" unicode="$" 
d="M37 172l117.003 203.003c40 -43.333 81.5 -76.333 124.5 -99s85.5 -34 127.5 -34c54.667 0 99 16 133 48s51 73.333 51 124c0 74 -62.333 144.333 -187 211c-32 17.333 -56.333 31 -73 41c-102 58 -175 118.167 -219 180.5s-66 135.166 -66 218.499
c0 92 21.667 169.833 65 233.5s105.666 109.5 186.999 137.5v184h86v-168c1.33301 0 3.33301 0.333008 6 1c22.667 2 40.334 3 53.001 3c6 0 12.667 -0.333008 20 -1s15.666 -1.66699 24.999 -3v168h86v-178c50.667 -12 95.167 -29.333 133.5 -52s71.833 -51.667 100.5 -87
l-137 -197c-38 34.667 -76 60.667 -114 78s-76 26 -114 26c-40 0 -73.167 -12.333 -99.5 -37s-39.5 -56 -39.5 -94c0 -66 64 -131.333 192 -196c11.333 -5.33301 19.666 -9.66602 24.999 -12.999c128 -64 214.667 -127.333 260 -190s68 -144.667 68 -246
c0 -100.667 -24.667 -187.834 -74 -261.501s-116.333 -122.834 -201 -147.501v-207h-86v192c-10 -2.66699 -20.833 -4.66699 -32.5 -6s-23.834 -2 -36.501 -2c-10 0 -17.167 0.166992 -21.5 0.5s-8.83301 0.833008 -13.5 1.5v-186h-86v200
c-46.667 4.66699 -91.667 19.667 -135 45s-85 61.666 -125 108.999z" />
    <glyph glyph-name="percent" unicode="%" horiz-adv-x="1677" 
d="M385 -18l725 1497h162l-721 -1497h-166zM1212 418c0 -100.667 6.33301 -168.167 19 -202.5s35 -51.5 67 -51.5c32.667 0 55.5 18.167 68.5 54.5s19.5 102.833 19.5 199.5c0 100 -6.5 168 -19.5 204s-35.833 54 -68.5 54c-31.333 0 -53.5 -18 -66.5 -54
s-19.5 -104 -19.5 -204zM1589 420c0 -142.667 -24.833 -251.333 -74.5 -326s-121.834 -112 -216.501 -112c-93.333 0 -165 37.5 -215 112.5s-75 183.5 -75 325.5c0 142.667 24.833 251.667 74.5 327s121.5 113 215.5 113c94.667 0 166.834 -37.5 216.501 -112.5
s74.5 -184.167 74.5 -327.5zM276 1042c0 -98.667 6.66699 -165.667 20 -201s36.333 -53 69 -53c31.333 0 53.5 17.833 66.5 53.5s19.5 102.5 19.5 200.5c0 102 -6.33301 170.167 -19 204.5s-35 51.5 -67 51.5c-32.667 0 -55.667 -18.167 -69 -54.5s-20 -103.5 -20 -201.5z
M655 1038c0 -142.667 -24.834 -251.333 -74.501 -326s-121.5 -112 -215.5 -112s-166 37.5 -216 112.5s-75 183.5 -75 325.5c0 142.667 24.833 251.834 74.5 327.501s121.834 113.5 216.501 113.5c94 0 165.833 -37.833 215.5 -113.5s74.5 -184.834 74.5 -327.501z" />
    <glyph glyph-name="ampersand" unicode="&#x26;" horiz-adv-x="1116" 
d="M614 295l-182.001 288.999c-38 -24 -65.167 -48.167 -81.5 -72.5s-24.5 -52.166 -24.5 -83.499c0 -50 15.167 -91.833 45.5 -125.5s67.5 -50.5 111.5 -50.5c18.667 0 38.834 3.5 60.501 10.5s45.167 17.833 70.5 32.5zM488.999 939.999l30.999 27.001
c24.667 21.333 43.834 45.333 57.501 72s20.5 53 20.5 79c0 29.333 -7.5 53.166 -22.5 71.499s-34.167 27.5 -57.5 27.5c-30 0 -54.167 -10 -72.5 -30s-27.5 -45.667 -27.5 -77c0 -16.667 2.5 -34 7.5 -52s11.833 -34 20.5 -48zM734.998 102
c-38.667 -37.333 -80.333 -65.333 -125 -84s-93 -28 -145 -28c-113.333 0 -208.166 41.5 -284.499 124.5s-114.5 184.833 -114.5 305.5c0 74 19.333 143.667 58 209s95.667 124 171 176c-42 70 -71.333 128.167 -88 174.5s-25 90.5 -25 132.5c0 97.333 31.333 175 94 233
s146.667 87 252 87c93.333 0 169.666 -28.167 228.999 -84.5s89 -128.833 89 -217.5c0 -68.667 -20 -135.667 -60 -201s-98 -125 -174 -179l185 -293l145 155l148 -206l-166 -150l163 -256h-288z" />
    <glyph glyph-name="quotesingle" unicode="'" horiz-adv-x="334" 
d="M86 1436h164v-557h-164v557z" />
    <glyph glyph-name="parenleft" unicode="(" horiz-adv-x="567" 
d="M532 -383l-223 -61.001c-77.333 164.667 -134.833 329.334 -172.5 494.001s-56.5 333 -56.5 505c0 176 19 347.333 57 514s95.333 329 172 487l223 -61c-70 -144.667 -122.167 -294.5 -156.5 -449.5s-51.5 -318.5 -51.5 -490.5c0 -164.667 17.167 -324.5 51.5 -479.5
s86.5 -307.833 156.5 -458.5z" />
    <glyph glyph-name="parenright" unicode=")" horiz-adv-x="567" 
d="M33 -383c70 148 122.333 299.833 157 455.5s52 316.5 52 482.5c0 173.333 -17.333 337.333 -52 492s-87 304 -157 448l225 61c76 -158 132.833 -320.167 170.5 -486.5s56.5 -337.833 56.5 -514.5c0 -173.333 -18.667 -342.333 -56 -507s-94.333 -328.667 -171 -492z" />
    <glyph glyph-name="asterisk" unicode="*" 
d="M178 872l-67 115l227 119l-227 119l65 114l219 -135l-10 256h131l-10 -256l217 135l68 -114l-230 -119l227 -119l-65 -115l-217 138l10 -258h-131l10 258z" />
    <glyph glyph-name="plus" unicode="+" horiz-adv-x="1706" 
d="M768 1221h170v-527h514v-166h-514v-528h-170v528h-514v166h514v527z" />
    <glyph glyph-name="comma" unicode="," horiz-adv-x="451" 
d="M0 -281l162 607h289l-248 -607h-203z" />
    <glyph glyph-name="hyphen" unicode="-" horiz-adv-x="668" 
d="M76 332v317h516v-317h-516z" />
    <glyph glyph-name="period" unicode="." horiz-adv-x="451" 
d="M401 166c0 -50.667 -16.833 -93 -50.5 -127s-75.5 -51 -125.5 -51c-49.333 0 -91 17 -125 51s-51 76.333 -51 127c0 50 17 91.833 51 125.5s75.667 50.5 125 50.5s91 -16.833 125 -50.5s51 -75.5 51 -125.5z" />
    <glyph glyph-name="slash" unicode="/" horiz-adv-x="627" 
d="M451 1479h176l-451 -1669h-176z" />
    <glyph glyph-name="zero" unicode="0" 
d="M330 727c0 -185.333 9 -311.833 27 -379.5s49.333 -101.5 94 -101.5c43.333 0 73.833 33.333 91.5 100s26.5 193.667 26.5 381c0 190.667 -8.83301 319.5 -26.5 386.5s-48.167 100.5 -91.5 100.5c-44.667 0 -76 -34.167 -94 -102.5s-27 -196.5 -27 -384.5zM848 729
c0 -242 -34.167 -427 -102.5 -555s-166.5 -192 -294.5 -192c-128.667 0 -227.167 64 -295.5 192s-102.5 313 -102.5 555c0 244 34 430 102 558s166.667 192 296 192c128.667 0 227 -64 295 -192s102 -314 102 -558z" />
    <glyph glyph-name="one" unicode="1" 
d="M336 0v1219h-139v241h419v-1460h-280z" />
    <glyph glyph-name="two" unicode="2" 
d="M63 0l358.999 698c44 85.333 77.833 164.333 101.5 237s35.5 132.334 35.5 179.001c0 46 -9.16699 81.333 -27.5 106s-44.5 37 -78.5 37c-49.333 0 -83.166 -19.833 -101.499 -59.5s-27.5 -117.834 -27.5 -234.501h-238c-0.666992 6.66699 -1.16699 14.167 -1.5 22.5
s-0.5 20.5 -0.5 36.5c0 149.333 32.667 262.833 98 340.5s161 116.5 287 116.5c108 0 193.667 -32.5 257 -97.5s95 -152.833 95 -263.5c0 -75.333 -16.333 -158.5 -49 -249.5s-96 -221.5 -190 -391.5l-125 -225h327v-252h-721z" />
    <glyph glyph-name="three" unicode="3" 
d="M49 418l244.001 0.00195312v-17c0 -56.667 9.83301 -99.834 29.5 -129.501s48.167 -44.5 85.5 -44.5c41.333 0 73.166 18.333 95.499 55s33.5 88.667 33.5 156c0 77.333 -14.333 132.5 -43 165.5s-76 49.5 -142 49.5c-4 0 -9.66699 -0.333008 -17 -1s-13.333 -1 -18 -1
v240h19c78.667 0 135.167 14.333 169.5 43s51.5 75.667 51.5 141c0 50 -10 89.167 -30 117.5s-47.667 42.5 -83 42.5c-36.667 0 -64.5 -14 -83.5 -42s-28.5 -69.333 -28.5 -124v-16h-236v34c0 127.333 31 224.5 93 291.5s152 100.5 270 100.5
c109.333 0 193.333 -34.333 252 -103s88 -167 88 -295c0 -88 -18.667 -158.167 -56 -210.5s-91 -83.166 -161 -92.499v-18c88 -17.333 153.667 -54.333 197 -111s65 -133.667 65 -231c0 -136 -37.833 -243 -113.5 -321s-179.167 -117 -310.5 -117
c-118.667 0 -210.5 34.667 -275.5 104s-97.5 167.666 -97.5 294.999c0 4 0.333008 10.167 1 18.5s1 15.166 1 20.499z" />
    <glyph glyph-name="four" unicode="4" 
d="M246 582l243.001 0.000976562v413c0 12.667 0.666992 31.5 2 56.5s4.33301 71.167 9 138.5c-16.667 -56.667 -33.334 -108.834 -50.001 -156.501s-33 -88.5 -49 -122.5zM479.001 0.000976562v362h-420v220l383 878h281v-878h119v-220h-119v-362h-244z" />
    <glyph glyph-name="five" unicode="5" 
d="M57 39l37.0029 264.002c36 -21.333 72 -37.5 108 -48.5s70.333 -16.5 103 -16.5c72.667 0 128.667 20.333 168 61s59 98.667 59 174c0 87.333 -30.333 154.166 -91 200.499s-148.334 69.5 -263.001 69.5c-12.667 0 -32.334 -1 -59.001 -3c-6 0 -11 -0.333008 -15 -1
l101 721h569v-248h-366l-37 -266h10c137.333 0 244.666 -39.5 321.999 -118.5s116 -188.167 116 -327.5c0 -159.333 -42.833 -285.5 -128.5 -378.5s-202.5 -139.5 -350.5 -139.5c-55.333 0 -106 4.66699 -152 14s-89.667 23.666 -131 42.999z" />
    <glyph glyph-name="six" unicode="6" 
d="M455 238c36.667 0 64.501 18.999 83.501 56.999s28.5 94 28.5 168c0 78.667 -8.33301 136.5 -25 173.5s-43 55.5 -79 55.5c-39.333 0 -68 -19.667 -86 -59s-27 -101.666 -27 -186.999c0 -69.333 8.66699 -121.333 26 -156s43.666 -52 78.999 -52zM377.001 865.999
c33.333 24 64.832 41.666 94.499 52.999s58.834 17 87.501 17c91.333 0 163 -37 215 -111s78 -177 78 -309c0 -169.333 -34.833 -301 -104.5 -395s-166.5 -141 -290.5 -141c-130 0 -229.833 43.833 -299.5 131.5s-104.5 212.834 -104.5 375.501
c0 158.667 63 368.334 189 629.001l16 33l150 311h280l-233 -459l-41.5 -76c-13 -22.667 -25.167 -42.334 -36.5 -59.001z" />
    <glyph glyph-name="seven" unicode="7" 
d="M90 0l461 1219h-440v241h798l-530 -1460h-289z" />
    <glyph glyph-name="eight" unicode="8" 
d="M285 793l-0.000976562 12c-60 14.667 -105.833 48.5 -137.5 101.5s-47.5 122.167 -47.5 207.5c0 116.667 30.333 206.667 91 270s147.334 95 260.001 95c112 0 198.333 -31.667 259 -95s91 -153.333 91 -270c0 -84.667 -16 -153.667 -48 -207s-77.667 -87.333 -137 -102
v-12c72.667 -20 128.5 -63 167.5 -129s58.5 -150.667 58.5 -254c0 -134 -34.667 -238.833 -104 -314.5s-165 -113.5 -287 -113.5c-122.667 0 -218.667 37.833 -288 113.5s-104 180.5 -104 314.5c0 103.333 19.333 188 58 254s94.667 109 168 129zM448.999 1251
c-33.333 0 -57.832 -12.001 -73.499 -36.001s-23.5 -61.667 -23.5 -113c0 -61.333 7.66699 -105 23 -131s40.666 -39 75.999 -39c34 0 58.833 12.5 74.5 37.5s23.5 65.833 23.5 122.5c0 54.667 -8.16699 94.834 -24.5 120.501s-41.5 38.5 -75.5 38.5zM451 650.999
c-40 0 -69.833 -16.666 -89.5 -49.999s-29.5 -83.333 -29.5 -150c0 -72.667 9.66699 -126.334 29 -161.001s49.333 -52 90 -52c40 0 69.667 16.833 89 50.5s29 85.5 29 155.5s-9.66699 122 -29 156s-49 51 -89 51z" />
    <glyph glyph-name="nine" unicode="9" 
d="M440 1221c-36.667 0 -63.834 -18.6689 -81.501 -56.002s-26.5 -94.666 -26.5 -171.999s8.83301 -134.833 26.5 -172.5s44.834 -56.5 81.501 -56.5c37.333 0 64.833 18.5 82.5 55.5s26.5 94.833 26.5 173.5c0 76.667 -9 133.834 -27 171.501s-45.333 56.5 -82 56.5z
M528 591.998c-32 -25.333 -63.168 -43.999 -93.501 -55.999s-61.166 -18 -92.499 -18c-91.333 0 -163 38.5 -215 115.5s-78 183.167 -78 318.5c0 170 34.667 300.333 104 391s169.333 136 300 136c123.333 0 219.333 -44.833 288 -134.5s103 -214.834 103 -375.501
s-59.333 -370.667 -178 -630l-13 -28l-141 -311h-283l226 457c0.666992 1.33301 2 4.33301 4 9c20.667 43.333 43.667 85.333 69 126z" />
    <glyph glyph-name="colon" unicode=":" horiz-adv-x="563" 
d="M459 754c0 -50 -16.999 -92.333 -50.999 -127s-75.667 -52 -125 -52c-50 0 -92 17.167 -126 51.5s-51 76.833 -51 127.5c0 50 17.167 91.833 51.5 125.5s76.166 50.5 125.499 50.5s91 -16.833 125 -50.5s51 -75.5 51 -125.5zM459.001 166
c0 -50.667 -16.999 -93 -50.999 -127s-75.667 -51 -125 -51c-50 0 -92 17 -126 51s-51 76.333 -51 127c0 50 17.167 91.833 51.5 125.5s76.166 50.5 125.499 50.5s91 -16.833 125 -50.5s51 -75.5 51 -125.5z" />
    <glyph glyph-name="semicolon" unicode=";" horiz-adv-x="563" 
d="M-29 -281l164 607h289l-248 -607h-205zM459 754c0 -50 -16.999 -92.333 -50.999 -127s-75.667 -52 -125 -52c-50 0 -92 17.167 -126 51.5s-51 76.833 -51 127.5c0 50 17.167 91.833 51.5 125.5s76.166 50.5 125.499 50.5s91 -16.833 125 -50.5s51 -75.5 51 -125.5z" />
    <glyph glyph-name="less" unicode="&#x3c;" horiz-adv-x="1706" 
d="M1442 1176v-185l-934 -381l934 -381v-182l-1178 483v160z" />
    <glyph glyph-name="equal" unicode="=" horiz-adv-x="1706" 
d="M254 487h1198v-165h-1198v165zM254 901h1198v-168h-1198v168z" />
    <glyph glyph-name="greater" unicode="&#x3e;" horiz-adv-x="1706" 
d="M264 1176l1178 -486v-160l-1178 -483v182l934 381l-934 381v185z" />
    <glyph glyph-name="question" unicode="?" horiz-adv-x="883" 
d="M289 461l-0.00195312 339.999c74.667 3.33301 128.834 23 162.501 59s50.5 92.667 50.5 170c0 63.333 -8 109.833 -24 139.5s-41 44.5 -75 44.5c-28.667 0 -50.5 -12.667 -65.5 -38s-22.5 -63 -22.5 -113v-10h-270v34c0 128.667 31.5 226.167 94.5 292.5
s155.833 99.5 278.5 99.5c124.667 0 220 -38.333 286 -115s99 -188 99 -334c0 -110 -19.667 -195.667 -59 -257s-99.666 -100.666 -180.999 -117.999v-194h-274zM601.998 157.999c0 -50.667 -16.833 -92.667 -50.5 -126s-75.5 -50 -125.5 -50s-91.833 16.667 -125.5 50
s-50.5 75.333 -50.5 126c0 50 17 91.833 51 125.5s75.667 50.5 125 50.5s91 -16.833 125 -50.5s51 -75.5 51 -125.5z" />
    <glyph glyph-name="at" unicode="@" horiz-adv-x="2048" 
d="M1174 283c-36.667 -58 -79.334 -100.502 -128.001 -127.502s-107.334 -40.5 -176.001 -40.5c-101.333 0 -178.833 28.833 -232.5 86.5s-80.5 140.834 -80.5 249.501c0 155.333 46 287 138 395s203 162 333 162c59.333 0 109 -11.5 149 -34.5s73 -58.833 99 -107.5l55 107
h154l-148 -586c-0.666992 -3.33301 -1.33398 -7.33301 -2.00098 -12c-4 -18.667 -6 -31 -6 -37c0 -25.333 8.83301 -45.666 26.5 -60.999s40.834 -23 69.501 -23c34 0 69.833 10.167 107.5 30.5s72.834 48.5 105.501 84.5c48 50.667 84.667 109.834 110 177.501
s38 139.5 38 215.5c0 168.667 -62.333 305.667 -187 411s-287.667 158 -489 158c-92 0 -177.333 -10.333 -256 -31s-150.334 -52 -215.001 -94c-120.667 -75.333 -213.667 -172.333 -279 -291s-98 -250.334 -98 -395.001c0 -208 69.833 -374.333 209.5 -499
s325.834 -187 558.501 -187c110.667 0 218.5 16.333 323.5 49s202.167 80 291.5 142l67 -99c-99.333 -75.333 -205.5 -132 -318.5 -170s-231.5 -57 -355.5 -57c-128 0 -245 16 -351 48s-199.667 79.333 -281 142c-103.333 78.667 -180.5 170.5 -231.5 275.5
s-76.5 224.167 -76.5 357.5c0 110 17.333 214.5 52 313.5s85.667 189.833 153 272.5c98 119.333 215.833 210 353.5 272s290.834 93 459.501 93c110.667 0 215.667 -15.167 315 -45.5s184.333 -72.833 255 -127.5c88 -68 154 -146.5 198 -235.5s66 -189.167 66 -300.5
c0 -108 -21.667 -208.667 -65 -302s-105 -172.333 -185 -237c-46 -36.667 -96 -64.5 -150 -83.5s-110 -28.5 -168 -28.5c-70.667 0 -123 13.5 -157 40.5s-51 68.833 -51 125.5v4zM1233 706.998c-9.33301 56 -29.832 99.332 -61.499 129.999s-72.5 46 -122.5 46
c-84.667 0 -157.167 -42.833 -217.5 -128.5s-90.5 -189.167 -90.5 -310.5c0 -65.333 15.167 -115.666 45.5 -150.999s73.166 -53 128.499 -53c60 0 114.5 22.167 163.5 66.5s82.167 101.833 99.5 172.5z" />
    <glyph glyph-name="A" unicode="A" horiz-adv-x="952" 
d="M381 483h194c-20 102 -38 208.833 -54 320.5s-30 229.5 -42 353.5l-46.5 -332.5zM-8 0l340 1460h305l324 -1460h-291l-49 256h-293l-45 -256h-291z" />
    <glyph glyph-name="B" unicode="B" horiz-adv-x="999" 
d="M397 854h31.001c74.667 0 129.5 14.667 164.5 44s52.5 74.666 52.5 135.999c0 64.667 -17.833 112.334 -53.5 143.001s-90.834 46 -165.501 46h-29v-369zM397.001 260c4.66699 0 11.499 -0.333008 20.499 -1s15.833 -1 20.5 -1c74.667 0 128.834 15 162.501 45
s50.5 77.667 50.5 143c0 70 -17 120 -51 150s-90 45 -168 45h-35v-381zM115 0l-0.000976562 1460h284c190.667 0 325.5 -29.833 404.5 -89.5s118.5 -159.5 118.5 -299.5c0 -79.333 -15 -144.666 -45 -195.999s-76.667 -92.333 -140 -123
c70.667 -25.333 122.834 -65.166 156.501 -119.499s50.5 -125.833 50.5 -214.5c0 -66 -11 -125.833 -33 -179.5s-54 -99.167 -96 -136.5c-42 -36.667 -92.5 -62.834 -151.5 -78.501s-151.833 -23.5 -278.5 -23.5h-270z" />
    <glyph glyph-name="C" unicode="C" horiz-adv-x="932" 
d="M866 16c-28 -11.333 -56.1689 -19.8301 -84.502 -25.4971s-56.833 -8.5 -85.5 -8.5c-186 0 -337.167 67.667 -453.5 203s-174.5 312.666 -174.5 531.999c0 228 56.833 412 170.5 552s262.167 210 445.5 210c34 0 66 -2.83301 96 -8.5s58.667 -14.5 86 -26.5v-273
c-28 11.333 -55.167 19.666 -81.5 24.999s-52.166 8 -77.499 8c-97.333 0 -176.333 -43 -237 -129s-91 -200 -91 -342c0 -136.667 31.167 -247.334 93.5 -332.001s142.5 -127 240.5 -127c24.667 0 49.834 3 75.501 9s51.5 14.667 77.5 26v-293z" />
    <glyph glyph-name="D" unicode="D" horiz-adv-x="1102" 
d="M403 270h23c103.333 0 182.333 38.833 237 116.5s82 190.5 82 338.5c0 158.667 -26.5 276.5 -79.5 353.5s-134.167 115.5 -243.5 115.5h-19v-924zM115 0l0.000976562 1460h250c225.333 0 393.5 -60.333 504.5 -181s166.5 -304 166.5 -550c0 -148 -20.333 -272 -61 -372
s-104.334 -182.667 -191.001 -248c-51.333 -39.333 -109.5 -67.333 -174.5 -84s-156.833 -25 -275.5 -25h-219z" />
    <glyph glyph-name="E" unicode="E" horiz-adv-x="811" 
d="M115 0v1460h614v-270h-332v-295h301v-268h-301v-342h332v-285h-614z" />
    <glyph glyph-name="F" unicode="F" horiz-adv-x="799" 
d="M115 0v1460h630v-270h-348v-303h318v-269h-318v-618h-282z" />
    <glyph glyph-name="G" unicode="G" horiz-adv-x="1139" 
d="M528 825l543.003 -0.000976562c0 -7.33301 0.333008 -18.5 1 -33.5s1 -26.167 1 -33.5c0 -244 -44.833 -434.333 -134.5 -571s-213.5 -205 -371.5 -205c-154 0 -276 66.833 -366 200.5s-135 315.834 -135 546.501c0 232.667 46.667 415.834 140 549.501
s220.666 200.5 381.999 200.5c109.333 0 202.166 -32 278.499 -96s132.166 -157 167.499 -279l-262 -121c-11.333 72.667 -32.833 127 -64.5 163s-73.5 54 -125.5 54c-78 0 -135.167 -37.833 -171.5 -113.5s-54.5 -194.834 -54.5 -357.501c0 -155.333 19.167 -273 57.5 -353
s94.5 -120 168.5 -120c64.667 0 115.167 27.167 151.5 81.5s54.5 130.833 54.5 229.5h-260v258z" />
    <glyph glyph-name="H" unicode="H" horiz-adv-x="1133" 
d="M115 0v1460h288v-540h326v540h291v-1460h-291v635h-326v-635h-288z" />
    <glyph glyph-name="I" unicode="I" horiz-adv-x="553" 
d="M127 0v1460h297v-1460h-297z" />
    <glyph glyph-name="J" unicode="J" horiz-adv-x="645" 
d="M6 14v264.999c22.667 -12 43.167 -20.833 61.5 -26.5s34.833 -8.5 49.5 -8.5c48.667 0 82 17.833 100 53.5s27 127.5 27 275.5v887h295v-1018c0 -99.333 -5.33301 -171.833 -16 -217.5s-28.667 -85.167 -54 -118.5c-32.667 -41.333 -73 -72.666 -121 -93.999
s-102.667 -32 -164 -32c-34.667 0 -67 2.83301 -97 8.5s-57 14.167 -81 25.5z" />
    <glyph glyph-name="K" unicode="K" horiz-adv-x="975" 
d="M115 2v1458h282v-637l285 637h303l-301 -665l311 -793h-311l-287 711v-711h-282z" />
    <glyph glyph-name="L" unicode="L" horiz-adv-x="735" 
d="M115 0v1460h288v-1175h332v-285h-620z" />
    <glyph glyph-name="M" unicode="M" horiz-adv-x="1366" 
d="M43 0l143 1460h375l76 -557c11.333 -84.667 20.833 -165.834 28.5 -243.501s13.834 -153.167 18.501 -226.5c12 128.667 22.167 230.167 30.5 304.5s15.166 129.5 20.499 165.5l94 557h371l123 -1460h-295l-31 678l-3 72c-8.66699 177.333 -13 322.666 -13 435.999
l-190 -1186h-211l-179 1194c0 -99.333 -6 -241.333 -18 -426l-6 -94l-45 -674h-289z" />
    <glyph glyph-name="N" unicode="N" horiz-adv-x="1135" 
d="M115 0l-0.00195312 1460h295l295 -786c8.66699 -25.333 20.834 -64.166 36.501 -116.499l53.5 -184.5c-15.333 103.333 -26.666 198.166 -33.999 284.499s-11 166.833 -11 241.5v561h270v-1460h-270l-320 817c-5.33301 12 -19.333 61.667 -42 149l-25 94
c6.66699 -56.667 11.667 -120.5 15 -191.5s5 -155.833 5 -254.5v-614h-268z" />
    <glyph glyph-name="O" unicode="O" horiz-adv-x="1157" 
d="M578 260c74.667 0 130.5 39.001 167.5 117.001s55.5 195.333 55.5 352c0 158 -18.5 276 -55.5 354s-92.833 117 -167.5 117s-130.334 -38.833 -167.001 -116.5s-55 -195.834 -55 -354.501c0 -158 18.333 -275.667 55 -353s92.334 -116 167.001 -116zM1092 709.001
c0 -222.667 -46.667 -399.501 -140 -530.501s-218 -196.5 -374 -196.5c-161.333 0 -287 65.833 -377 197.5s-135 314.834 -135 549.501c0 234 45.5 417.5 136.5 550.5s216.167 199.5 375.5 199.5c160 0 285.667 -68 377 -204s137 -324.667 137 -566z" />
    <glyph glyph-name="P" unicode="P" horiz-adv-x="932" 
d="M397 827c3.33301 0 8.5 -0.333984 15.5 -1.00098s12.167 -1 15.5 -1c62 0 109.167 17.833 141.5 53.5s48.5 86.834 48.5 153.501c0 69.333 -15.333 120.5 -46 153.5s-78.667 49.5 -144 49.5c-3.33301 0 -8.5 -0.333008 -15.5 -1s-12.167 -1 -15.5 -1v-406z
M115 -0.000976562v1460h303c160.667 0 280 -34.833 358 -104.5s117 -176.167 117 -319.5c0 -136.667 -37.667 -242.834 -113 -318.501s-181 -113.5 -317 -113.5c-17.333 0 -30.5 0.166992 -39.5 0.5s-17.5 0.833008 -25.5 1.5l-1 -606h-282z" />
    <glyph glyph-name="Q" unicode="Q" horiz-adv-x="1157" 
d="M625 559l137.002 -151c13.333 40.667 23.166 86.5 29.499 137.5s9.5 111.5 9.5 181.5c0 157.333 -18.833 275.833 -56.5 355.5s-93.167 119.5 -166.5 119.5c-76 0 -132.333 -40.833 -169 -122.5s-55 -207.5 -55 -377.5c0 -146 18.833 -257.167 56.5 -333.5
s92.5 -114.5 164.5 -114.5c6 0 12.667 0.333008 20 1s15.666 1.66699 24.999 3l-153 170zM1104 31l-157.998 -136.999l-137 151c-30.667 -20 -64.834 -34.833 -102.501 -44.5s-80.5 -14.5 -128.5 -14.5c-162 0 -287.833 67 -377.5 201s-134.5 322.333 -134.5 565
c0 225.333 45.667 402.833 137 532.5s216.333 194.5 375 194.5c163.333 0 289.833 -66.833 379.5 -200.5s134.5 -322.834 134.5 -567.501c0 -120 -11.333 -222.5 -34 -307.5s-57.334 -154.5 -104.001 -208.5z" />
    <glyph glyph-name="R" unicode="R" horiz-adv-x="940" 
d="M397 827c3.33301 0 8.83301 -0.333008 16.5 -1s13.167 -1 16.5 -1c63.333 0 111 17.667 143 53s48 87.333 48 156c0 70 -14.667 121 -44 153s-76.333 48 -141 48c-10 0 -17.667 -0.166992 -23 -0.5s-10.333 -0.833008 -15 -1.5zM115 0l-0.000976562 1460h303
c166.667 0 287.5 -32.667 362.5 -98s112.5 -169.666 112.5 -312.999c0 -104 -19.167 -187.5 -57.5 -250.5s-96.166 -107.167 -173.499 -132.5l280 -666h-307l-238 604v-604h-282z" />
    <glyph glyph-name="S" unicode="S" horiz-adv-x="786" 
d="M70 51l-0.00195312 303c36.667 -32 72.667 -56 108 -72s71 -24 107 -24c49.333 0 88.166 13 116.499 39s42.5 61.333 42.5 106c0 55.333 -38.333 115.333 -115 180c-21.333 18 -37.333 32 -48 42c-89.333 80 -150.666 151.833 -183.999 215.5s-50 135.834 -50 216.501
c0 126 35.5 227.833 106.5 305.5s163.833 116.5 278.5 116.5c40.667 0 80.834 -5.83301 120.501 -17.5s81.5 -29.834 125.5 -54.501v-258c-51.333 24.667 -91.166 41.667 -119.499 51s-53.5 14 -75.5 14c-42 0 -76.333 -13.167 -103 -39.5s-40 -60.833 -40 -103.5
c0 -37.333 10 -72.166 30 -104.499s66.667 -80.166 140 -143.499c98 -84 161 -153.833 189 -209.5s42 -122.834 42 -201.501c0 -132.667 -37.5 -237.5 -112.5 -314.5s-177.167 -115.5 -306.5 -115.5c-49.333 0 -94.833 5.66699 -136.5 17s-80.167 28.666 -115.5 51.999z" />
    <glyph glyph-name="T" unicode="T" horiz-adv-x="797" 
d="M252 0v1190h-223v270h739v-270h-223v-1190h-293z" />
    <glyph glyph-name="U" unicode="U" horiz-adv-x="1124" 
d="M1018 1460l0.000976562 -917c0 -112 -3.33301 -191.5 -10 -238.5s-17.667 -85.833 -33 -116.5c-35.333 -70 -86.5 -121.833 -153.5 -155.5s-153.167 -50.5 -258.5 -50.5s-191.833 16.833 -259.5 50.5s-118.834 85.5 -153.501 155.5
c-16 31.333 -27.333 70.666 -34 117.999s-10 126.333 -10 237v43v874h291v-940c0 -119.333 12.167 -196.166 36.5 -230.499s67.5 -51.5 129.5 -51.5c63.333 0 106.833 17.5 130.5 52.5s35.5 111.5 35.5 229.5v940h289z" />
    <glyph glyph-name="V" unicode="V" horiz-adv-x="995" 
d="M377 0l-416.002 1460h295l172 -661c16.667 -64.667 30.834 -133.667 42.501 -207s20.834 -150.333 27.501 -231c4.66699 74.667 12.5 148.167 23.5 220.5s24.833 142.833 41.5 211.5l168 667h303l-413 -1460h-244z" />
    <glyph glyph-name="W" unicode="W" horiz-adv-x="1497" 
d="M2 1460h295.004l104 -659c10 -59.333 18.667 -125.833 26 -199.5s13.666 -155.5 18.999 -245.5l191 1104h242l190 -1104c0 64.667 2.66699 130.834 8 198.501s13.666 136.167 24.999 205.5l108 700h287l-293 -1460h-256l-155 805c-8 40 -14.833 88 -20.5 144
s-9.83398 117.333 -12.501 184c-6.66699 -72.667 -13.334 -137.334 -20.001 -194.001s-13 -100.667 -19 -132l-162 -807h-262z" />
    <glyph glyph-name="X" unicode="X" horiz-adv-x="864" 
d="M602 0l-114.999 297c-11.333 30.667 -21.833 64.167 -31.5 100.5s-18.167 74.5 -25.5 114.5c-7.33301 -40.667 -15.333 -79.167 -24 -115.5s-17.667 -69.5 -27 -99.5l-100 -297h-332l338 739l-308 721h306l110 -307c6 -16.667 12.667 -39 20 -67
s15.666 -64.333 24.999 -109c8 38 16 72 24 102s16 55 24 75l108 306h301l-307 -721l330 -739h-316z" />
    <glyph glyph-name="Y" unicode="Y" horiz-adv-x="801" 
d="M254 0v686l-338 774h307l96 -264c18 -47.333 34.333 -94.5 49 -141.5s28.667 -94.833 42 -143.5c12 54 25 104.333 39 151s28.333 88.667 43 126l106 272h285l-340 -774v-686h-289z" />
    <glyph glyph-name="Z" unicode="Z" horiz-adv-x="877" 
d="M-16 0l471 1192h-402v268h795l-465 -1175h424v-285h-823z" />
    <glyph glyph-name="bracketleft" unicode="[" horiz-adv-x="567" 
d="M66 -397v1904h464v-207h-188v-1490h188v-207h-464z" />
    <glyph glyph-name="backslash" unicode="\" horiz-adv-x="627" 
d="M451 -190l-451 1669h176l451 -1669h-176z" />
    <glyph glyph-name="bracketright" unicode="]" horiz-adv-x="567" 
d="M500 -397h-465v207h190v1490h-190v207h465v-1904z" />
    <glyph glyph-name="asciicircum" unicode="^" horiz-adv-x="2048" 
d="M915 1460h218l495 -561h-207l-397 397l-399 -397h-207z" />
    <glyph glyph-name="underscore" unicode="_" horiz-adv-x="1024" 
d="M0 -311h1024v-172h-1024v172z" />
    <glyph glyph-name="grave" unicode="`" horiz-adv-x="1024" 
d="M229 1485h246l187 -371h-134z" />
    <glyph glyph-name="a" unicode="a" horiz-adv-x="928" 
d="M571 506c0 89.333 -10.5 155.666 -31.5 198.999s-53.5 65 -97.5 65c-39.333 0 -67.833 -20.833 -85.5 -62.5s-26.5 -109.5 -26.5 -203.5c0 -93.333 9.83301 -163.166 29.5 -209.499s49.5 -69.5 89.5 -69.5c42.667 0 73.667 22.333 93 67s29 116 29 214zM825 0
l-254 -0.000976562v145c-28.667 -54 -61.5 -94.667 -98.5 -122s-77.833 -41 -122.5 -41c-93.333 0 -164.833 43.333 -214.5 130s-74.5 212.334 -74.5 377.001c0 160 25.5 283.667 76.5 371s122.5 131 214.5 131c43.333 0 82.833 -13 118.5 -39s69.167 -66.333 100.5 -121
v150h254v-981z" />
    <glyph glyph-name="b" unicode="b" horiz-adv-x="928" 
d="M483 772c-42.667 0 -73.833 -21.167 -93.5 -63.5s-29.5 -109.833 -29.5 -202.5c0 -100.667 9.33301 -173 28 -217s49 -66 91 -66c40 0 69.5 23.167 88.5 69.5s28.5 118.833 28.5 217.5c0 92 -9 158.667 -27 200s-46.667 62 -86 62zM102.001 0l-0.000976562 1550h260v-708
c29.333 50 61.5 87.333 96.5 112s73.833 37 116.5 37c94.667 0 166.5 -44.333 215.5 -133s73.5 -218.334 73.5 -389.001c0 -153.333 -25.167 -273.166 -75.5 -359.499s-119.166 -129.5 -206.499 -129.5c-48 0 -90.5 13.833 -127.5 41.5s-67.833 68.167 -92.5 121.5v-143
h-260z" />
    <glyph glyph-name="c" unicode="c" horiz-adv-x="651" 
d="M614 702c-21.333 16 -42 27.6699 -62 35.0029s-40 11 -60 11c-52 0 -93.333 -22.5 -124 -67.5s-46 -105.833 -46 -182.5c0 -80.667 15.5 -142.834 46.5 -186.501s74.833 -65.5 131.5 -65.5c21.333 0 41.333 4.16699 60 12.5s36.667 21.166 54 38.499v-258
c-28 -19.333 -57.5 -33.666 -88.5 -42.999s-63.5 -14 -97.5 -14c-114.667 0 -205.834 45.667 -273.501 137s-101.5 215.666 -101.5 372.999c0 155.333 34 278.666 102 369.999s159 137 273 137c32.667 0 64.334 -3.16699 95.001 -9.5s61 -15.833 91 -28.5v-259z" />
    <glyph glyph-name="d" unicode="d" horiz-adv-x="928" 
d="M563 506c0 94 -9.50098 161.833 -28.501 203.5s-49.833 62.5 -92.5 62.5c-39.333 0 -67.833 -21 -85.5 -63s-26.5 -110.333 -26.5 -205c0 -94 9.83301 -164.333 29.5 -211s49.5 -70 89.5 -70c40.667 0 69.834 21.5 87.501 64.5s26.5 115.833 26.5 218.5zM824.999 0
h-262.002v143c-26 -54.667 -57.167 -95.5 -93.5 -122.5s-78.166 -40.5 -125.499 -40.5c-90 0 -159.667 44.167 -209 132.5s-74 213.833 -74 376.5c0 160.667 25.333 284.5 76 371.5s122.334 130.5 215.001 130.5c42 0 80.5 -12.333 115.5 -37s66.833 -62 95.5 -112v708h262
v-1550z" />
    <glyph glyph-name="e" unicode="e" horiz-adv-x="877" 
d="M600 574c-2 71.333 -14.832 124.167 -38.499 158.5s-59.167 51.5 -106.5 51.5c-46.667 0 -82.334 -18 -107.001 -54s-37 -88.333 -37 -157zM311.001 418.001l-0.000976562 -7.99902c0 -73.333 13 -129.666 39 -168.999s63 -59 111 -59c30.667 0 56.834 9.33301 78.501 28
s39.167 47 52.5 85h233c-21.333 -98 -65.5 -174.667 -132.5 -230s-149.167 -83 -246.5 -83c-122 0 -219 45.667 -291 137s-108 214.666 -108 369.999c0 157.333 36 281.666 108 372.999s169 137 291 137c129.333 0 227 -45 293 -135s99 -223 99 -399v-47h-527z" />
    <glyph glyph-name="f" unicode="f" horiz-adv-x="530" 
d="M512 1558v-229.999c-4 0 -8.33301 0.166992 -13 0.5s-10.667 0.5 -18 0.5c-34 0 -57.167 -9.33301 -69.5 -28s-18.5 -70 -18.5 -154v-166h119v-207h-119v-774h-270v774h-98v207h98v260c0 66 4 115.167 12 147.5s21.667 61.166 41 86.499c24.667 30.667 56.5 54 95.5 70
s84.5 24 136.5 24c12.667 0 27.5 -0.833008 44.5 -2.5s36.833 -4.5 59.5 -8.5z" />
    <glyph glyph-name="g" unicode="g" horiz-adv-x="928" 
d="M563 981h261.998v-907c0 -210 -27.833 -350.333 -83.5 -421s-156.167 -106 -301.5 -106c-114.667 0 -203.667 29.833 -267 89.5s-95 143.167 -95 250.5v15h229c0 -47.333 10.833 -82.833 32.5 -106.5s53.834 -35.5 96.501 -35.5c46.667 0 79.5 12.167 98.5 36.5
s28.5 67.5 28.5 129.5v203c-31.333 -46 -64.833 -80.667 -100.5 -104s-73.167 -35 -112.5 -35c-93.333 0 -164.833 43 -214.5 129s-74.5 210.333 -74.5 373c0 159.333 25.333 282.333 76 369s122.334 130 215.001 130c44 0 83.5 -13.167 118.5 -39.5
s65.833 -66.5 92.5 -120.5v150zM562.998 506c0 95.333 -9.33398 163.5 -28.001 204.5s-49.667 61.5 -93 61.5c-39.333 0 -67.833 -21 -85.5 -63s-26.5 -110.333 -26.5 -205c0 -94 9.83301 -164.333 29.5 -211s49.5 -70 89.5 -70c40.667 0 69.834 21.5 87.501 64.5
s26.5 115.833 26.5 218.5z" />
    <glyph glyph-name="h" unicode="h" horiz-adv-x="915" 
d="M553 0v594.002c0 56 -6.66699 94.5 -20 115.5s-36 31.5 -68 31.5c-34.667 0 -59.667 -12.333 -75 -37s-23 -65.334 -23 -122.001v-582h-271v1550h271v-688c36.667 44 75.5 76.5 116.5 97.5s85.833 31.5 134.5 31.5c76.667 0 130 -21.333 160 -64s45 -128.334 45 -257.001
v-670h-270z" />
    <glyph glyph-name="i" unicode="i" horiz-adv-x="483" 
d="M86 1243c0 44.667 14.833 82.168 44.5 112.501s66.834 45.5 111.501 45.5c42.667 0 79.167 -15.333 109.5 -46s45.5 -68 45.5 -112c0 -42.667 -15 -78.834 -45 -108.501s-66.667 -44.5 -110 -44.5c-44.667 0 -81.834 14.5 -111.501 43.5s-44.5 65.5 -44.5 109.5z
M106 0.000976562v981h271v-981h-271z" />
    <glyph glyph-name="j" unicode="j" horiz-adv-x="483" 
d="M86 1243c0 44.667 14.833 82.168 44.5 112.501s66.834 45.5 111.501 45.5c42.667 0 79.167 -15.333 109.5 -46s45.5 -68 45.5 -112c0 -42.667 -15 -78.834 -45 -108.501s-66.667 -44.5 -110 -44.5c-44.667 0 -81.834 14.5 -111.501 43.5s-44.5 65.5 -44.5 109.5z
M106 -394.999v1376h271v-1376h-271z" />
    <glyph glyph-name="k" unicode="k" horiz-adv-x="858" 
d="M371 578c6.66699 18 21.667 51.333 45 100l12 24l139 279h305l-245 -408l264 -573h-301l-219 535v-535h-271v1550h271v-972z" />
    <glyph glyph-name="l" unicode="l" horiz-adv-x="483" 
d="M106 0v1550h271v-1550h-271z" />
    <glyph glyph-name="m" unicode="m" horiz-adv-x="1343" 
d="M98 0l0.00195312 980.999h250v-152c34 54.667 72.333 95.334 115 122.001s90.334 40 143.001 40c53.333 0 96.666 -13.667 129.999 -41s55.666 -67.666 66.999 -120.999c38 55.333 78 96.166 120 122.499s87.333 39.5 136 39.5c71.333 0 121.166 -24.667 149.499 -74
s42.5 -151 42.5 -305v-612h-266v594c0 55.333 -6 93.666 -18 114.999s-32.667 32 -62 32c-35.333 0 -60.5 -11.667 -75.5 -35s-22.5 -64.666 -22.5 -123.999v-582h-264v594c0 54 -6.16699 92.333 -18.5 115s-32.833 34 -61.5 34c-36 0 -61.833 -12.333 -77.5 -37
s-23.5 -66 -23.5 -124v-582h-264z" />
    <glyph glyph-name="n" unicode="n" horiz-adv-x="915" 
d="M553 0l0.000976562 593.999c0 56 -6.66699 94.5 -20 115.5s-36 31.5 -68 31.5c-34.667 0 -59.667 -12.333 -75 -37s-23 -65.334 -23 -122.001v-582h-271v981h252v-152c35.333 54.667 75.166 95.334 119.499 122.001s94.5 40 150.5 40c76.667 0 130 -21.667 160 -65
s45 -128.666 45 -255.999v-670h-270z" />
    <glyph glyph-name="o" unicode="o" horiz-adv-x="909" 
d="M455 219c48 0 85.167 23.833 111.5 71.5s39.5 115.5 39.5 203.5c0 87.333 -13.167 154.833 -39.5 202.5s-63.5 71.5 -111.5 71.5s-85 -23.667 -111 -71s-39 -115 -39 -203c0 -88.667 13 -156.667 39 -204s63 -71 111 -71zM864 492
c0 -156 -37.167 -279.999 -111.5 -371.999s-173.5 -138 -297.5 -138c-124.667 0 -223.834 45.833 -297.501 137.5s-110.5 215.834 -110.5 372.501c0 155.333 36.833 278.666 110.5 369.999s172.834 137 297.501 137s224 -45.833 298 -137.5s111 -214.834 111 -369.501z" />
    <glyph glyph-name="p" unicode="p" horiz-adv-x="928" 
d="M483 770c-42 0 -72.666 -20.668 -91.999 -62.001s-29 -108.666 -29 -201.999c0 -102 9.16699 -174.667 27.5 -218s48.166 -65 89.499 -65c40 0 69.5 23.167 88.5 69.5s28.5 118.833 28.5 217.5c0 91.333 -9 157.5 -27 198.5s-46.667 61.5 -86 61.5zM102.001 -395.001
l-0.00195312 1376h254v-150c31.333 54.667 65 95 101 121s75.333 39 118 39c92.667 0 164 -43.667 214 -131s75 -212.333 75 -375c0 -161.333 -24.667 -286.333 -74 -375s-118.666 -133 -207.999 -133c-47.333 0 -89.666 14.167 -126.999 42.5s-68.333 69.5 -93 123.5v-538
h-260z" />
    <glyph glyph-name="q" unicode="q" horiz-adv-x="928" 
d="M563 506c0 93.333 -9.50098 160.666 -28.501 201.999s-49.833 62 -92.5 62c-39.333 0 -67.833 -21 -85.5 -63s-26.5 -110.333 -26.5 -205c0 -93.333 9.83301 -163.166 29.5 -209.499s49.5 -69.5 89.5 -69.5c40.667 0 69.834 21.5 87.501 64.5s26.5 115.833 26.5 218.5z
M824.999 -395h-262.002v538c-26 -55.333 -57.167 -96.833 -93.5 -124.5s-78.166 -41.5 -125.499 -41.5c-89.333 0 -158.833 44.333 -208.5 133s-74.5 213.667 -74.5 375c0 162.667 25.333 287.667 76 375s122.334 131 215.001 131c43.333 0 82.833 -13 118.5 -39
s69.167 -66.333 100.5 -121v150h254v-1376z" />
    <glyph glyph-name="r" unicode="r" horiz-adv-x="588" 
d="M100 0v980.999h252v-174c22 64 51.333 111.833 88 143.5s81 47.834 133 48.501v-258h-18c-71.333 0 -119.833 -16.833 -145.5 -50.5s-38.5 -110.167 -38.5 -229.5v-461h-271z" />
    <glyph glyph-name="s" unicode="s" horiz-adv-x="686" 
d="M27 84l112.001 198.999c33.333 -22 62.333 -38.167 87 -48.5s47 -15.5 67 -15.5c20.667 0 37.834 6.66699 51.501 20s20.5 30 20.5 50c0 34.667 -33.333 72.667 -100 114l-40 25c-64 43.333 -109 85.5 -135 126.5s-39 89.5 -39 145.5c0 92 28.667 164.833 86 218.5
s134.666 80.5 231.999 80.5c48.667 0 95.167 -6.83301 139.5 -20.5s87.166 -34.834 128.499 -63.501l-115 -194c-26 22 -50.167 38.333 -72.5 49s-43.166 16 -62.499 16c-22 0 -39.833 -6 -53.5 -18s-20.5 -27.667 -20.5 -47c0 -28.667 31 -62 93 -100
c19.333 -12 34.333 -21.667 45 -29c69.333 -48 117.666 -93.5 144.999 -136.5s41 -93.833 41 -152.5c0 -95.333 -31.333 -172.666 -94 -231.999s-144.667 -89 -246 -89c-49.333 0 -96.333 8.33301 -141 25s-87.667 42.334 -129 77.001z" />
    <glyph glyph-name="t" unicode="t" horiz-adv-x="526" 
d="M127 0v770h-107v211h107v283h270v-283h107v-211h-107v-770h-270z" />
    <glyph glyph-name="u" unicode="u" horiz-adv-x="903" 
d="M811 981l0.000976562 -508c0 -196 -25.833 -326.833 -77.5 -392.5s-145.167 -98.5 -280.5 -98.5c-136 0 -230.167 32.667 -282.5 98s-78.5 196.333 -78.5 393v508h264v-631c0 -51.333 7 -86 21 -104s38.667 -27 74 -27s60.166 9.33301 74.499 28s21.5 53 21.5 103v631
h264z" />
    <glyph glyph-name="v" unicode="v" horiz-adv-x="772" 
d="M254 0l-252 981h262l84 -442c6 -31.333 12.167 -71.333 18.5 -120s12.5 -105 18.5 -169c6 62 12.167 117.167 18.5 165.5s12.5 89.5 18.5 123.5l86 442h262l-252 -981h-264z" />
    <glyph glyph-name="w" unicode="w" horiz-adv-x="1186" 
d="M698 981l79.999 -421.001c4.66699 -28.667 10 -68 16 -118s12.333 -107 19 -171l21.5 169.5c7 53 12.833 93.833 17.5 122.5l76 418h262l-258 -981h-234l-71 407c-3.33301 17.333 -8.16602 55 -14.499 113s-13.166 129.667 -20.499 215l-5 -48
c-16 -170 -25.333 -263.333 -28 -280l-72 -407h-233l-258 981h262l74 -418c2 -12.667 10.333 -74 25 -184c5.33301 -45.333 10 -81.333 14 -108c4.66699 56 10.167 108.833 16.5 158.5s13.166 92.834 20.499 129.501l77 422h213z" />
    <glyph glyph-name="x" unicode="x" horiz-adv-x="758" 
d="M-12 0l250 526l-234 455h260l82 -164c10.667 -22 18.667 -41.833 24 -59.5s9 -35.167 11 -52.5c2.66699 18 7 36.5 13 55.5s14 38.5 24 58.5l76 162h268l-248 -451l256 -530h-270l-88 223c-6.66699 18 -12.5 38 -17.5 60s-9.5 46.333 -13.5 73
c-4 -25.333 -8.83301 -49 -14.5 -71s-12.5 -42 -20.5 -60l-96 -225h-262z" />
    <glyph glyph-name="y" unicode="y" horiz-adv-x="758" 
d="M135 -395l120.998 394.999l-254 981h266l95 -435c5.33301 -27.333 9.83301 -56.666 13.5 -87.999s5.83398 -63 6.50098 -95c8.66699 71.333 14.834 119 18.501 143s7.16699 43.333 10.5 58l90 417h266l-369 -1376h-264z" />
    <glyph glyph-name="z" unicode="z" horiz-adv-x="674" 
d="M18 0l283 762h-260v219h610l-278 -745h258v-236h-613z" />
    <glyph glyph-name="braceleft" unicode="{" horiz-adv-x="1024" 
d="M874 1477l0.00390625 -178.998c-5.33301 0 -13.333 0.333008 -24 1s-18.334 1 -23.001 1c-72.667 0 -121.834 -13.833 -147.501 -41.5s-38.5 -85.5 -38.5 -173.5v-241c0 -103.333 -14.667 -176.833 -44 -220.5s-82.333 -74.834 -159 -93.501
c76 -18 128.833 -48.833 158.5 -92.5s44.5 -117.167 44.5 -220.5v-240c0 -88 13.167 -146.167 39.5 -174.5s75.833 -42.5 148.5 -42.5c4.66699 0 12 0.333008 22 1s17.667 1 23 1v-176h-63c-68 0 -123.167 4 -165.5 12s-77.833 20.333 -106.5 37
c-38 22.667 -64.667 54.667 -80 96s-23 109 -23 203v248c0 96 -17.5 163.667 -52.5 203s-94.5 59 -178.5 59c-4.66699 0 -11.834 -0.333008 -21.501 -1s-16.834 -1 -21.501 -1v179c4.66699 0 11.834 -0.5 21.501 -1.5s16.834 -1.5 21.501 -1.5c84 0 143.5 19.667 178.5 59
s52.5 106.666 52.5 201.999v247c0 96.667 7.66699 165.5 23 206.5s42 72.5 80 94.5c29.333 18 65.666 30.833 108.999 38.5s103.666 11.5 180.999 11.5h45z" />
    <glyph glyph-name="bar" unicode="|" horiz-adv-x="1024" 
d="M424 1565h178v-2048h-178v2048z" />
    <glyph glyph-name="braceright" unicode="}" horiz-adv-x="1024" 
d="M152 1477h45.001c76.667 0 136.5 -3.83301 179.5 -11.5s79.167 -20.5 108.5 -38.5c38 -22 64.667 -53.667 80 -95s23 -110 23 -206v-247c0 -96 17.333 -163.5 52 -202.5s94.334 -58.5 179.001 -58.5c4 0 11 0.5 21 1.5s17.333 1.5 22 1.5v-179
c-4.66699 0 -11.834 0.333008 -21.501 1s-16.834 1 -21.501 1c-84 0 -143.5 -19.667 -178.5 -59s-52.5 -107 -52.5 -203v-248c0 -95.333 -7.66699 -163.333 -23 -204s-42 -72.334 -80 -95.001c-28.667 -17.333 -64.667 -29.833 -108 -37.5s-103.333 -11.5 -180 -11.5h-45
v176c5.33301 0 13 -0.333008 23 -1s17.333 -1 22 -1c72.667 0 121.834 14 147.501 42s38.5 86.333 38.5 175v240c0 102 15 175 45 219s83.333 75.333 160 94c-76.667 18.667 -130 49.834 -160 93.501s-45 117.167 -45 220.5v241c0 88 -12.667 145.833 -38 173.5
s-74 41.5 -146 41.5c-4.66699 0 -12.334 -0.333008 -23.001 -1s-18.667 -1 -24 -1v179z" />
    <glyph glyph-name="asciitilde" unicode="~" horiz-adv-x="1706" 
d="M1530 784l-0.000976562 -184.002c-68.667 -47.333 -134.5 -82.666 -197.5 -105.999s-124.167 -35 -183.5 -35c-29.333 0 -60.166 2.83301 -92.499 8.5s-65.166 14.5 -98.499 26.5c-16.667 5.33301 -42 14 -76 26c-141.333 49.333 -247.666 74 -318.999 74
c-54.667 0 -112.667 -12.667 -174 -38s-131.666 -66 -210.999 -122v187c70.667 48 138 83.833 202 107.5s125.667 35.5 185 35.5c41.333 0 83.166 -4 125.499 -12s98.5 -24 168.5 -48c8.66699 -2.66699 22.667 -7.66699 42 -15c109.333 -38.667 192.666 -58 249.999 -58
c56.667 0 115.667 12.333 177 37s128.666 63.334 201.999 116.001z" />
    <glyph glyph-name="nonbreakingspace" unicode="&#xa0;" 
 />
    <glyph glyph-name="exclamdown" unicode="&#xa1;" horiz-adv-x="563" 
d="M145 1032h275v-1032h-275v1032zM283 1479c49.333 0 90.999 -17 124.999 -51s51 -75.667 51 -125c0 -50 -17 -92 -51 -126s-75.667 -51 -125 -51s-91.166 17 -125.499 51s-51.5 76 -51.5 126s17 91.833 51 125.5s76 50.5 126 50.5z" />
    <glyph glyph-name="cent" unicode="&#xa2;" 
d="M369 33v205c-96 9.33301 -171.667 59.333 -227 150s-83 210.667 -83 360c0 130.667 27 238.167 81 322.5s130.333 137.833 229 160.5v194h129v-194c23.333 0 45.833 -2.83301 67.5 -8.5s42.834 -14.5 63.501 -26.5v-250c-24.667 14 -47.667 24.333 -69 31
s-41.333 10 -60 10c-56 0 -98.667 -20 -128 -60s-44 -98.333 -44 -175c0 -86.667 14.5 -152.167 43.5 -196.5s71.833 -66.5 128.5 -66.5c18.667 0 38.667 3.5 60 10.5s44.333 17.167 69 30.5v-254c-20.667 -8.66699 -41.834 -16.167 -63.501 -22.5
s-44.167 -11.5 -67.5 -15.5v-205h-129z" />
    <glyph glyph-name="sterling" unicode="&#xa3;" 
d="M47 690l126.998 -0.000976562c-38 74.667 -65.5 142 -82.5 202s-25.5 117.667 -25.5 173c0 130.667 37.333 232.334 112 305.001s179.334 109 314.001 109c118.667 0 210 -30.167 274 -90.5s96 -146.5 96 -258.5v-30l-223 -68v15c0 59.333 -13 104.5 -39 135.5
s-64.333 46.5 -115 46.5c-48.667 0 -86.334 -16.833 -113.001 -50.5s-40 -81.167 -40 -142.5c0 -48 18 -122.333 54 -223c19.333 -52.667 33.666 -93.667 42.999 -123h263v-139h-237c5.33301 -31.333 9 -56.833 11 -76.5s3 -36.5 3 -50.5c0 -33.333 -4 -65.5 -12 -96.5
s-20.333 -61.5 -37 -91.5c24.667 -14.667 49.5 -25.5 74.5 -32.5s50.5 -10.5 76.5 -10.5c42.667 0 82.834 9.33301 120.501 28s76.834 48.667 117.501 90l113 -192c-48 -48 -98.667 -82.833 -152 -104.5s-114 -32.5 -182 -32.5c-47.333 0 -106.666 10.5 -177.999 31.5
s-122 31.5 -152 31.5c-22.667 0 -48 -5.33301 -76 -16s-58.667 -26.334 -92 -47.001l-98 172c32 34.667 65.5 60.667 100.5 78s72.5 26 112.5 26c2.66699 0 7 -0.333008 13 -1s10.333 -1 13 -1c6 31.333 10.333 58.666 13 81.999s4 45 4 65c0 24.667 -2 49.334 -6 74.001
s-10.333 49.334 -19 74.001h-176v139z" />
    <glyph glyph-name="currency" unicode="&#xa4;" horiz-adv-x="1241" 
d="M623 1176c-80 0 -148.499 -28.667 -205.499 -86s-85.5 -125.666 -85.5 -204.999c0 -80 28.167 -148.167 84.5 -204.5s125.166 -84.5 206.499 -84.5c80.667 0 149.167 28.167 205.5 84.5s84.5 124.5 84.5 204.5c0 79.333 -28.5 147.666 -85.5 204.999
s-125.167 86 -204.5 86zM168.001 1430l203.002 -203c36.667 27.333 75.667 47.833 117 61.5s85.666 20.5 132.999 20.5s92 -6.83301 134 -20.5s81 -34.167 117 -61.5l203 203l94 -93l-204 -204c26 -36 45.667 -74.833 59 -116.5s20 -85.5 20 -131.5
c0 -46.667 -6.66699 -90.834 -20 -132.501s-33 -80.167 -59 -115.5l204 -205l-94 -92l-203 205c-38 -28 -77.333 -48.667 -118 -62s-84.334 -20 -131.001 -20c-48 0 -93 6.83301 -135 20.5s-81 34.167 -117 61.5l-203 -205l-92 92l203 205
c-26.667 35.333 -46.667 73.833 -60 115.5s-20 85.834 -20 132.501c0 46 6.66699 89.833 20 131.5s33.333 80.5 60 116.5l-203 204z" />
    <glyph glyph-name="yen" unicode="&#xa5;" horiz-adv-x="989" 
d="M358 0l-0.000976562 659.001h-333v84h311l-70 158h-241v84h204l-209 475h277l104 -270c0.666992 -0.666992 1.33398 -2 2.00098 -4c43.333 -110.667 76.333 -205.667 99 -285c14 57.333 28.167 109.166 42.5 155.499s29.5 88.833 45.5 127.5l119 276h260l-207 -475h205
v-84h-242l-70 -158h312v-84h-336v-659h-273z" />
    <glyph glyph-name="brokenbar" unicode="&#xa6;" horiz-adv-x="1024" 
d="M424 408h178v-758h-178v758zM424 1432h178v-758h-178v758z" />
    <glyph glyph-name="section" unicode="&#xa7;" 
d="M453 397c34 0 59.834 13.833 77.501 41.5s26.5 67.834 26.5 120.501s-8.83301 92.5 -26.5 119.5s-43.5 40.5 -77.5 40.5c-34.667 0 -60.834 -13.5 -78.501 -40.5s-26.5 -66.833 -26.5 -119.5s9 -92.834 27 -120.501s44 -41.5 78 -41.5zM799.001 1096l-243.999 0.00195312
v10c0 55.333 -8 95.166 -24 119.499s-42 36.5 -78 36.5c-26.667 0 -49.167 -9.83301 -67.5 -29.5s-27.5 -44.167 -27.5 -73.5c0 -54.667 51.667 -112 155 -172l65 -39c100 -61.333 169 -122 207 -182s57 -135 57 -225c0 -78.667 -18.167 -145.834 -54.5 -201.501
s-87.833 -95.834 -154.5 -120.501c56 -32 98 -71.667 126 -119s42 -102.666 42 -165.999c0 -102.667 -31.5 -185.667 -94.5 -249s-146.833 -95 -251.5 -95c-106.667 0 -188.334 33.167 -245.001 99.5s-85 161.5 -85 285.5v7h235v-19c0 -51.333 8.33301 -90.5 25 -117.5
s40.667 -40.5 72 -40.5c28 0 50.667 11 68 33s26 50.667 26 86c0 72.667 -58 143.667 -174 213l-31 19c-108.667 64.667 -183.667 126.167 -225 184.5s-62 127.166 -62 206.499c0 77.333 19.667 145 59 203s95.666 101.667 168.999 131c-56 41.333 -97 84.833 -123 130.5
s-39 96.834 -39 153.501c0 93.333 31.5 169 94.5 227s146.167 87 249.5 87c106.667 0 188.334 -32.333 245.001 -97s85 -158 85 -280v-6z" />
    <glyph glyph-name="dieresis" unicode="&#xa8;" horiz-adv-x="1024" 
d="M229 1296c0 32 12 59.8311 36 83.498s51.667 35.5 83 35.5c32.667 0 61 -11.833 85 -35.5s36 -51.5 36 -83.5c0 -33.333 -11.667 -61.666 -35 -84.999s-52 -35 -86 -35c-32.667 0 -60.667 11.833 -84 35.5s-35 51.834 -35 84.501zM557 1296
c0 32 11.833 59.8311 35.5 83.498s51.5 35.5 83.5 35.5c32.667 0 61 -11.833 85 -35.5s36 -51.5 36 -83.5c0 -33.333 -11.667 -61.666 -35 -84.999s-52 -35 -86 -35c-32.667 0 -60.667 11.833 -84 35.5s-35 51.834 -35 84.501z" />
    <glyph glyph-name="copyright" unicode="&#xa9;" horiz-adv-x="1706" 
d="M1206 903h-166.001c-6.66699 49.333 -26.667 87.333 -60 114s-76.666 40 -129.999 40c-66 0 -117.667 -28.833 -155 -86.5s-56 -137.5 -56 -239.5c0 -101.333 19.167 -179.5 57.5 -234.5s92.833 -82.5 163.5 -82.5c53.333 0 96.333 14.5 129 43.5s52.667 70.5 60 124.5
h165c-4.66699 -90 -40.167 -162.333 -106.5 -217s-150.833 -82 -253.5 -82c-122 0 -218.667 39.667 -290 119s-107 187 -107 323c0 138.667 36.5 249.167 109.5 331.5s170.167 123.5 291.5 123.5c98 0 179 -25.667 243 -77s99 -118 105 -200zM853.999 1362
c-86.667 0 -167.667 -15.5 -243 -46.5s-142.333 -76.167 -201 -135.5c-60 -61.333 -106.167 -130.666 -138.5 -207.999s-48.5 -157.666 -48.5 -240.999c0 -84 16 -164 48 -240s78.333 -144 139 -204c60 -60.667 128.167 -107 204.5 -139s156.166 -48 239.499 -48
s163.333 16.167 240 48.5s146.334 79.166 209.001 140.499c59.333 58.667 104.5 125.5 135.5 200.5s46.5 155.5 46.5 241.5s-15.667 167.167 -47 243.5s-76.333 144.166 -135 203.499c-60.667 60 -129 105.667 -205 137s-157.333 47 -244 47zM851.999 1470
c101.333 0 196.664 -18.335 285.997 -55.002s169.333 -90.667 240 -162c70 -70 123.333 -149.5 160 -238.5s55 -183.5 55 -283.5c0 -102 -18.167 -197.333 -54.5 -286s-89.166 -166.667 -158.499 -234c-72 -71.333 -153.5 -126 -244.5 -164s-185.5 -57 -283.5 -57
c-97.333 0 -190.666 18.833 -279.999 56.5s-169.333 91.834 -240 162.501c-71.333 70.667 -125.666 150.834 -162.999 240.501s-56 183.5 -56 281.5c0 96.667 19 190.167 57 280.5s92.667 171.5 164 243.5c70 71.333 148.5 125 235.5 161s181.167 54 282.5 54z" />
    <glyph glyph-name="ordfeminine" unicode="&#xaa;" horiz-adv-x="696" 
d="M428 1128c0 62.667 -7.83203 109.167 -23.499 139.5s-39.834 45.5 -72.501 45.5c-30 0 -51.5 -14.5 -64.5 -43.5s-19.5 -76.833 -19.5 -143.5c0 -64.667 7.33301 -113.167 22 -145.5s36.667 -48.5 66 -48.5c32 0 55.333 15.333 70 46s22 80.667 22 150zM618.001 774
l-190 -0.000976562v103c-21.333 -38.667 -46 -67.5 -74 -86.5s-58.667 -28.5 -92 -28.5c-69.333 0 -122.5 30.333 -159.5 91s-55.5 148.334 -55.5 263.001c0 112.667 19 199.5 57 260.5s91.333 91.5 160 91.5c32.667 0 62.5 -9.16699 89.5 -27.5s51.833 -46.5 74.5 -84.5
v104h190v-686z" />
    <glyph glyph-name="guillemotleft" unicode="&#xab;" horiz-adv-x="834" 
d="M434 135l-149 -84l-252 449l252 428l149 -84l-198 -344zM801 135l-148 -84l-252 449l252 428l148 -84l-197 -344z" />
    <glyph glyph-name="logicalnot" unicode="&#xac;" horiz-adv-x="1706" 
d="M254 862h1198v-502h-166v336h-1032v166z" />
    <glyph glyph-name="sfthyphen" unicode="&#xad;" horiz-adv-x="668" 
d="M76 332v317h516v-317h-516z" />
    <glyph glyph-name="registered" unicode="&#xae;" horiz-adv-x="1706" 
d="M729 1047l-0.000976562 -261h117c66.667 0 115.334 10.167 146.001 30.5s46 52.5 46 96.5c0 46 -16 79.833 -48 101.5s-82.667 32.5 -152 32.5h-109zM550.999 1159l319.001 0.00195312c115.333 0 202.666 -19 261.999 -57s89 -94 89 -168
c0 -60.667 -16 -110.834 -48 -150.501s-77.667 -65.834 -137 -78.501l185 -375h-199l-164 346h-129v-346h-178v829zM854 1362c-86 0 -166.001 -15.168 -240.001 -45.501s-140.667 -75.166 -200 -134.499c-61.333 -62.667 -108.5 -132.667 -141.5 -210
s-49.5 -157.666 -49.5 -240.999s15.667 -162.833 47 -238.5s76.666 -143.5 135.999 -203.5c60 -60.667 128 -107.334 204 -140.001s154 -49 234 -49c86.667 0 168.834 15.667 246.501 47s147.5 77.333 209.5 138c59.333 57.333 105 123.5 137 198.5s48 154.167 48 237.5
c0 88.667 -15.167 171.167 -45.5 247.5s-75.166 144.833 -134.499 205.5c-62 61.333 -131.167 108 -207.5 140s-157.5 48 -243.5 48zM851.999 1470c102 0 198.167 -18.6689 288.5 -56.002s170.833 -92.333 241.5 -165c68.667 -69.333 121 -148.166 157 -236.499
s54 -182.166 54 -281.499c0 -102 -18.5 -197.667 -55.5 -287s-90.833 -168.333 -161.5 -237c-72 -70 -153 -123.667 -243 -161s-183.667 -56 -281 -56c-98 0 -192.167 19.167 -282.5 57.5s-170.833 93.5 -241.5 165.5c-70 70.667 -123.333 150.334 -160 239.001
s-55 181.667 -55 279c0 98 19.167 192.667 57.5 284s93.5 173 165.5 245c69.333 69.333 147.5 121.666 234.5 156.999s180.833 53 281.5 53z" />
    <glyph glyph-name="macron" unicode="&#xaf;" horiz-adv-x="1024" 
d="M266 1219v145h494v-145h-494z" />
    <glyph glyph-name="degree" unicode="&#xb0;" horiz-adv-x="674" 
d="M338 1350c-51.333 0 -95.166 -17.998 -131.499 -53.998s-54.5 -79.667 -54.5 -131c0 -50.667 18.167 -94.334 54.5 -131.001s80.166 -55 131.499 -55s94.833 18.167 130.5 54.5s53.5 80.166 53.5 131.499s-17.833 95 -53.5 131s-79.167 54 -130.5 54zM338 1460
c80.667 0 150 -28.999 208 -86.999s87 -128 87 -210c0 -80.667 -29 -150 -87 -208s-128 -87 -210 -87s-151.333 28.5 -208 85.5s-85 126.833 -85 209.5c0 83.333 28.667 153.666 86 210.999s127 86 209 86z" />
    <glyph glyph-name="plusminus" unicode="&#xb1;" horiz-adv-x="1706" 
d="M254 182h1198v-168h-1198v168zM768 1206h170v-334h514v-165h-514v-334h-170v334h-514v165h514v334z" />
    <glyph glyph-name="twosuperior" unicode="&#xb2;" horiz-adv-x="594" 
d="M41 584l238.001 420c28 49.333 50 95.833 66 139.5s24 79.5 24 107.5s-6 49.333 -18 64s-29.333 22 -52 22c-32.667 0 -55.167 -12 -67.5 -36s-18.5 -70.667 -18.5 -140l-156 1c-0.666992 4 -1.16699 8.5 -1.5 13.5s-0.5 11.833 -0.5 20.5c0 90 21.5 158.167 64.5 204.5
s106.167 69.5 189.5 69.5c71.333 0 128.166 -19.333 170.499 -58s63.5 -91 63.5 -157c0 -44.667 -10.667 -94 -32 -148s-64 -133 -128 -237l-82 -135h217v-151h-477z" />
    <glyph glyph-name="threesuperior" unicode="&#xb3;" horiz-adv-x="594" 
d="M33 834l159.999 0.00195312v-9c0 -33.333 6.5 -59 19.5 -77s31.5 -27 55.5 -27c28 0 49.333 10.667 64 32s22 52.333 22 93c0 46 -9.33301 79 -28 99s-49.667 30 -93 30h-24v143h12c52.667 0 90.5 8.66699 113.5 26s34.5 45.666 34.5 84.999
c0 30 -6.83301 53.5 -20.5 70.5s-32.167 25.5 -55.5 25.5c-24.667 0 -43.167 -8.33301 -55.5 -25s-18.5 -41.667 -18.5 -75v-11h-156v23c0 76 20.5 133.833 61.5 173.5s100.5 59.5 178.5 59.5c72 0 127.167 -20.333 165.5 -61s57.5 -99.334 57.5 -176.001
c0 -53.333 -12.333 -95.833 -37 -127.5s-60 -49.834 -106 -54.501v-11c58.667 -11.333 102.334 -34 131.001 -68s43 -80 43 -138c0 -81.333 -25 -145.5 -75 -192.5s-118.667 -70.5 -206 -70.5c-77.333 0 -137.5 21 -180.5 63s-64.5 101 -64.5 177
c0 2.66699 0.333008 6.33398 1 11.001s1 8.66699 1 12z" />
    <glyph glyph-name="acute" unicode="&#xb4;" horiz-adv-x="1024" 
d="M795 1485l-299 -371h-134l187 371h246z" />
    <glyph glyph-name="mu" unicode="&#xb5;" horiz-adv-x="1208" 
d="M205 1081h228.999l-125 -635c-4 -19.333 -7 -37.666 -9 -54.999s-3 -33.666 -3 -48.999c0 -64 15.5 -112.833 46.5 -146.5s76.167 -50.5 135.5 -50.5c81.333 0 145.833 29.5 193.5 88.5s84.834 156.5 111.501 292.5l109 555h225l-145 -739
c-6.66699 -32.667 -11.5 -59.834 -14.5 -81.501s-4.5 -38.834 -4.5 -51.501c0 -24 5.16699 -41 15.5 -51s27.833 -15 52.5 -15c8.66699 0 15.5 0.166992 20.5 0.5s9.5 0.833008 13.5 1.5l-32 -159c-21.333 -6 -44.166 -10.333 -68.499 -13s-51.5 -4 -81.5 -4
c-49.333 0 -86.5 10.5 -111.5 31.5s-37.5 52.167 -37.5 93.5v15c-27.333 -44.667 -63.333 -79.5 -108 -104.5s-93.334 -37.5 -146.001 -37.5c-54 0 -99.833 8.66699 -137.5 26s-70.167 45 -97.5 83l-99 -506h-229z" />
    <glyph glyph-name="paragraph" unicode="&#xb6;" horiz-adv-x="1024" 
d="M969 1479v-99h-117v-1380h-129v1380h-168v-1380h-131v784c-112 4 -201.5 37.667 -268.5 101s-100.5 145 -100.5 245c0 105.333 35.667 189.833 107 253.5s166 95.5 284 95.5h523z" />
    <glyph glyph-name="periodcentered" unicode="&#xb7;" horiz-adv-x="451" 
d="M401 729c0 -50 -16.833 -91.833 -50.5 -125.5s-75.5 -50.5 -125.5 -50.5s-91.833 16.667 -125.5 50s-50.5 75.333 -50.5 126c0 50 17 91.833 51 125.5s75.667 50.5 125 50.5s91 -16.833 125 -50.5s51 -75.5 51 -125.5z" />
    <glyph glyph-name="cedilla" unicode="&#xb8;" horiz-adv-x="1024" 
d="M274 -438l-0.00195312 129c42.667 -14 82.167 -24.667 118.5 -32s67.166 -11 92.499 -11c28.667 0 50.167 6.16699 64.5 18.5s21.5 30.5 21.5 54.5c0 24.667 -8.66699 42.5 -26 53.5s-44.666 16.5 -81.999 16.5c-10.667 0 -19.167 -0.166992 -25.5 -0.5
s-12.166 -0.833008 -17.499 -1.5v211h96v-90h12c66 0 115.667 -16 149 -48s50 -79.667 50 -143c0 -66.667 -19 -116.667 -57 -150s-94.667 -50 -170 -50c-28.667 0 -62.167 3.66699 -100.5 11s-80.166 18 -125.499 32z" />
    <glyph glyph-name="onesuperior" unicode="&#xb9;" horiz-adv-x="594" 
d="M221 584v731h-92v145h279v-876h-187z" />
    <glyph glyph-name="ordmasculine" unicode="&#xba;" horiz-adv-x="682" 
d="M342 928c36 0 63.833 16.668 83.5 50.001s29.5 80.666 29.5 141.999s-10 108.833 -30 142.5s-47.667 50.5 -83 50.5c-36 0 -63.833 -16.667 -83.5 -50s-29.5 -81 -29.5 -143s9.66699 -109.5 29 -142.5s47.333 -49.5 84 -49.5zM649 1118
c0 -108.667 -28 -195.167 -84 -259.5s-130.333 -96.5 -223 -96.5c-93.333 0 -167.833 32.167 -223.5 96.5s-83.5 150.833 -83.5 259.5c0 109.333 27.833 196.166 83.5 260.499s130.167 96.5 223.5 96.5s167.833 -32.167 223.5 -96.5s83.5 -151.166 83.5 -260.499z" />
    <glyph glyph-name="guillemotright" unicode="&#xbb;" horiz-adv-x="834" 
d="M401 135l197 365l-197 344l150 84l250 -428l-250 -449zM33 135l196 365l-196 344l149 84l252 -428l-252 -449z" />
    <glyph glyph-name="onequarter" unicode="&#xbc;" horiz-adv-x="1477" 
d="M1065 326l153.999 -0.000976562v231c0 10 0.5 24.167 1.5 42.5s2.5 40.166 4.5 65.499c-13.333 -37.333 -25.166 -68.666 -35.499 -93.999s-19.833 -45.666 -28.5 -60.999zM1210 -0.000976562v203h-264v123l242 491h176v-491h76v-123h-76v-203h-154zM224.999 -18.001
l854 1497h170l-854 -1497h-170zM210.999 642.999v682h-88v135h266v-817h-178z" />
    <glyph glyph-name="onehalf" unicode="&#xbd;" horiz-adv-x="1477" 
d="M950 0l226 390.999c27.333 48.667 48.5 93.334 63.5 134.001s22.5 74 22.5 100c0 25.333 -6 45 -18 59s-28.667 21 -50 21c-30 0 -50.833 -11.167 -62.5 -33.5s-17.5 -66.5 -17.5 -132.5h-151v32c0 84.667 20.333 148.5 61 191.5s100.667 64.5 180 64.5
c68.667 0 123 -18 163 -54s60 -84.667 60 -146c0 -42.667 -10 -89 -30 -139s-60.333 -124 -121 -222l-80 -125h207v-141h-453zM225 -18.001l854 1497h170l-854 -1497h-170zM211 642.999v682h-88v135h266v-817h-178z" />
    <glyph glyph-name="threequarters" unicode="&#xbe;" horiz-adv-x="1477" 
d="M1065 326l153.999 -0.000976562v231c0 10 0.5 24.167 1.5 42.5s2.5 40.166 4.5 65.499c-13.333 -37.333 -25.166 -68.666 -35.499 -93.999s-19.833 -45.666 -28.5 -60.999zM1210 -0.000976562v203h-264v123l242 491h176v-491h76v-123h-76v-203h-154zM224.999 -18.001
l854 1497h170l-854 -1497h-170zM30.999 876.999l153.001 -0.000976562v-9c0 -31.333 6.16699 -55.5 18.5 -72.5s30.166 -25.5 53.499 -25.5c26.667 0 47 10.167 61 30.5s21 49.833 21 88.5c0 43.333 -9 74.333 -27 93s-48 28 -90 28c-2 0 -5.33301 -0.333008 -10 -1
s-8 -1 -10 -1v135h10c49.333 0 84.833 7.83301 106.5 23.5s32.5 41.834 32.5 78.501c0 28.667 -6.16699 50.834 -18.5 66.501s-29.166 23.5 -50.499 23.5c-24 0 -42 -7.83301 -54 -23.5s-18 -39.167 -18 -70.5v-8h-148v18c0 71.333 19.5 125.666 58.5 162.999
s95.5 56 169.5 56c69.333 0 122.5 -18.833 159.5 -56.5s55.5 -92.5 55.5 -164.5c0 -49.333 -11.833 -88.666 -35.5 -117.999s-57.5 -46.666 -101.5 -51.999v-10c55.333 -10 96.666 -31 123.999 -63s41 -75 41 -129c0 -76 -23.833 -136 -71.5 -180s-113.167 -66 -196.5 -66
c-74.667 0 -132.5 19.667 -173.5 59s-61.5 94.666 -61.5 165.999c0 2 0.333008 5.16699 1 9.5s1 8.16602 1 11.499z" />
    <glyph glyph-name="questiondown" unicode="&#xbf;" horiz-adv-x="883" 
d="M590 999l-0.000976562 -341.001c-77.333 -4 -132.166 -24.5 -164.499 -61.5s-48.5 -97.833 -48.5 -182.5c0 -56.667 8.16699 -99.167 24.5 -127.5s40.833 -42.5 73.5 -42.5c28.667 0 50.5 12.833 65.5 38.5s22.5 63.167 22.5 112.5v11h271v-35
c0 -128.667 -31.667 -226 -95 -292s-156 -99 -278 -99c-126 0 -221.667 38 -287 114s-98 187.333 -98 334c0 110.667 19.5 196.834 58.5 258.501s99.167 101.167 180.5 118.5v194h275zM275.999 1303c0 50 16.999 91.833 50.999 125.5s76 50.5 126 50.5
c49.333 0 91 -17 125 -51s51 -75.667 51 -125c0 -50 -17 -92 -51 -126s-75.667 -51 -125 -51s-91.166 17 -125.499 51s-51.5 76 -51.5 126z" />
    <glyph glyph-name="Agrave" unicode="&#xc0;" horiz-adv-x="952" 
d="M381 483h194c-20 102 -38 208.833 -54 320.5s-30 229.5 -42 353.5l-46.5 -332.5zM-8 0l340 1460h305l324 -1460h-291l-49 256h-293l-45 -256h-291zM202 1964h246l187 -371h-134z" />
    <glyph glyph-name="Aacute" unicode="&#xc1;" horiz-adv-x="952" 
d="M381 483h194c-20 102 -38 208.833 -54 320.5s-30 229.5 -42 353.5l-46.5 -332.5zM-8 0l340 1460h305l324 -1460h-291l-49 256h-293l-45 -256h-291zM768 1964l-299 -371h-134l187 371h246z" />
    <glyph glyph-name="Acircumflex" unicode="&#xc2;" horiz-adv-x="952" 
d="M381 483h194c-20 102 -38 208.833 -54 320.5s-30 229.5 -42 353.5l-46.5 -332.5zM-8 0l340 1460h305l324 -1460h-291l-49 256h-293l-45 -256h-291zM217 1593l168 371h200l168 -371h-121l-147 217l-147 -217h-121z" />
    <glyph glyph-name="Atilde" unicode="&#xc3;" horiz-adv-x="952" 
d="M381 483h194c-20 102 -38 208.833 -54 320.5s-30 229.5 -42 353.5l-46.5 -332.5zM-8 0l340 1460h305l324 -1460h-291l-49 256h-293l-45 -256h-291zM753 1915c-11.333 -85.333 -31.1641 -147.334 -59.4971 -186.001s-67.166 -58 -116.499 -58
c-9.33301 0 -19 0.833008 -29 2.5s-20.667 4.16699 -32 7.5l-76 27c-9.33301 3.33301 -18.833 5.83301 -28.5 7.5s-18.5 2.5 -26.5 2.5c-18.667 0 -33.834 -6 -45.501 -18s-21.167 -32 -28.5 -60h-94c13.333 80 34.166 139.333 62.499 178s65.5 58 111.5 58
c10.667 0 22.167 -1.16699 34.5 -3.5s25.5 -6.16602 39.5 -11.499l75 -24c7.33301 -2.66699 14.666 -4.66699 21.999 -6s14.333 -2 21 -2c20 0 36.167 6.66699 48.5 20s22.166 35.333 29.499 66h92z" />
    <glyph glyph-name="Adieresis" unicode="&#xc4;" horiz-adv-x="952" 
d="M381 483h194c-20 102 -38 208.833 -54 320.5s-30 229.5 -42 353.5l-46.5 -332.5zM-8 0l340 1460h305l324 -1460h-291l-49 256h-293l-45 -256h-291zM202 1775c0 32 12 59.8311 36 83.498s51.667 35.5 83 35.5c32.667 0 61 -11.833 85 -35.5s36 -51.5 36 -83.5
c0 -33.333 -11.667 -61.666 -35 -84.999s-52 -35 -86 -35c-32.667 0 -60.667 11.833 -84 35.5s-35 51.834 -35 84.501zM530 1775c0 32 11.833 59.8311 35.5 83.498s51.5 35.5 83.5 35.5c32.667 0 61 -11.833 85 -35.5s36 -51.5 36 -83.5
c0 -33.333 -11.667 -61.666 -35 -84.999s-52 -35 -86 -35c-32.667 0 -60.667 11.833 -84 35.5s-35 51.834 -35 84.501z" />
    <glyph glyph-name="Aring" unicode="&#xc5;" horiz-adv-x="952" 
d="M383 1749c0 -27.333 10.168 -50.832 30.501 -70.499s44.166 -29.5 71.499 -29.5s51 9.83301 71 29.5s30 43.167 30 70.5c0 28 -10 52 -30 72s-43.667 30 -71 30s-50.833 -9.83301 -70.5 -29.5s-30.167 -43.834 -31.5 -72.501zM262.001 1749c0 62 21.833 114.667 65.5 158
s96.167 65 157.5 65c62 0 114.5 -21.5 157.5 -64.5s64.5 -95.833 64.5 -158.5c0 -61.333 -21.5 -113.5 -64.5 -156.5s-95.5 -64.5 -157.5 -64.5c-61.333 0 -113.833 21.5 -157.5 64.5s-65.5 95.167 -65.5 156.5zM-7.99902 0.000976562l340 1460h305l324 -1460h-291l-49 256
h-293l-45 -256h-291zM381.001 483.001h194c-20 102 -38 208.833 -54 320.5s-30 229.5 -42 353.5l-46.5 -332.5z" />
    <glyph glyph-name="AE" unicode="&#xc6;" horiz-adv-x="1157" 
d="M561 496l-55 352.001c-6 36.667 -10.667 75 -14 115s-5.66602 82 -6.99902 126c-0.666992 -52.667 -9.33398 -121.334 -26.001 -206.001l-6 -35l-68 -352h176zM-10 0.000976562l356 1460h576l47 -268h-267l56 -299h266l49 -268h-266l63 -340h265l53 -285h-553l-37 248
h-258l-55 -248h-295z" />
    <glyph glyph-name="Ccedilla" unicode="&#xc7;" horiz-adv-x="932" 
d="M866 16c-28 -11.333 -56.1689 -19.8301 -84.502 -25.4971s-56.833 -8.5 -85.5 -8.5c-186 0 -337.167 67.667 -453.5 203s-174.5 312.666 -174.5 531.999c0 228 56.833 412 170.5 552s262.167 210 445.5 210c34 0 66 -2.83301 96 -8.5s58.667 -14.5 86 -26.5v-273
c-28 11.333 -55.167 19.666 -81.5 24.999s-52.166 8 -77.499 8c-97.333 0 -176.333 -43 -237 -129s-91 -200 -91 -342c0 -136.667 31.167 -247.334 93.5 -332.001s142.5 -127 240.5 -127c24.667 0 49.834 3 75.501 9s51.5 14.667 77.5 26v-293zM384.998 -437.997
l-0.00195312 129c42.667 -14 82.167 -24.667 118.5 -32s67.166 -11 92.499 -11c28.667 0 50.167 6.16699 64.5 18.5s21.5 30.5 21.5 54.5c0 24.667 -8.66699 42.5 -26 53.5s-44.666 16.5 -81.999 16.5c-10.667 0 -19.167 -0.166992 -25.5 -0.5
s-12.166 -0.833008 -17.499 -1.5v211h96v-90h12c66 0 115.667 -16 149 -48s50 -79.667 50 -143c0 -66.667 -19 -116.667 -57 -150s-94.667 -50 -170 -50c-28.667 0 -62.167 3.66699 -100.5 11s-80.166 18 -125.499 32z" />
    <glyph glyph-name="Egrave" unicode="&#xc8;" horiz-adv-x="811" 
d="M115 0v1460h614v-270h-332v-295h301v-268h-301v-342h332v-285h-614zM135 1964h246l187 -371h-134z" />
    <glyph glyph-name="Eacute" unicode="&#xc9;" horiz-adv-x="811" 
d="M115 0v1460h614v-270h-332v-295h301v-268h-301v-342h332v-285h-614zM701 1964l-299 -371h-134l187 371h246z" />
    <glyph glyph-name="Ecircumflex" unicode="&#xca;" horiz-adv-x="811" 
d="M115 0v1460h614v-270h-332v-295h301v-268h-301v-342h332v-285h-614zM150 1593l168 371h200l168 -371h-121l-147 217l-147 -217h-121z" />
    <glyph glyph-name="Edieresis" unicode="&#xcb;" horiz-adv-x="811" 
d="M115 0v1460h614v-270h-332v-295h301v-268h-301v-342h332v-285h-614zM135 1775c0 32 12 59.8311 36 83.498s51.667 35.5 83 35.5c32.667 0 61 -11.833 85 -35.5s36 -51.5 36 -83.5c0 -33.333 -11.667 -61.666 -35 -84.999s-52 -35 -86 -35
c-32.667 0 -60.667 11.833 -84 35.5s-35 51.834 -35 84.501zM463 1775c0 32 11.833 59.8311 35.5 83.498s51.5 35.5 83.5 35.5c32.667 0 61 -11.833 85 -35.5s36 -51.5 36 -83.5c0 -33.333 -11.667 -61.666 -35 -84.999s-52 -35 -86 -35c-32.667 0 -60.667 11.833 -84 35.5
s-35 51.834 -35 84.501z" />
    <glyph glyph-name="Igrave" unicode="&#xcc;" horiz-adv-x="553" 
d="M127 0v1460h297v-1460h-297zM-7 1964h246l187 -371h-134z" />
    <glyph glyph-name="Iacute" unicode="&#xcd;" horiz-adv-x="553" 
d="M127 0v1460h297v-1460h-297zM559 1964l-299 -371h-134l187 371h246z" />
    <glyph glyph-name="Icircumflex" unicode="&#xce;" horiz-adv-x="553" 
d="M127 0v1460h297v-1460h-297zM8 1593l168 371h200l168 -371h-121l-147 217l-147 -217h-121z" />
    <glyph glyph-name="Idieresis" unicode="&#xcf;" horiz-adv-x="553" 
d="M127 0v1460h297v-1460h-297zM-7 1775c0 32 12 59.8311 36 83.498s51.667 35.5 83 35.5c32.667 0 61 -11.833 85 -35.5s36 -51.5 36 -83.5c0 -33.333 -11.667 -61.666 -35 -84.999s-52 -35 -86 -35c-32.667 0 -60.667 11.833 -84 35.5s-35 51.834 -35 84.501zM321 1775
c0 32 11.833 59.8311 35.5 83.498s51.5 35.5 83.5 35.5c32.667 0 61 -11.833 85 -35.5s36 -51.5 36 -83.5c0 -33.333 -11.667 -61.666 -35 -84.999s-52 -35 -86 -35c-32.667 0 -60.667 11.833 -84 35.5s-35 51.834 -35 84.501z" />
    <glyph glyph-name="Eth" unicode="&#xd0;" horiz-adv-x="1112" 
d="M412 270h24.001c105.333 0 184.666 38.333 237.999 115s80 191.334 80 344.001c0 155.333 -26.833 271.666 -80.5 348.999s-134.167 116 -241.5 116h-20v-291h153v-252h-153v-381zM123.001 0l0.000976562 651h-123v252h123v557h252
c225.333 0 393.666 -60.333 504.999 -181s167 -304 167 -550c0 -148 -20.5 -272 -61.5 -372s-104.5 -182.667 -190.5 -248c-51.333 -39.333 -109.833 -67.333 -175.5 -84s-158.167 -25 -277.5 -25h-219z" />
    <glyph glyph-name="Ntilde" unicode="&#xd1;" horiz-adv-x="1135" 
d="M115 0l-0.00195312 1460h295l295 -786c8.66699 -25.333 20.834 -64.166 36.501 -116.499l53.5 -184.5c-15.333 103.333 -26.666 198.166 -33.999 284.499s-11 166.833 -11 241.5v561h270v-1460h-270l-320 817c-5.33301 12 -19.333 61.667 -42 149l-25 94
c6.66699 -56.667 11.667 -120.5 15 -191.5s5 -155.833 5 -254.5v-614h-268zM842.998 1915c-11.333 -85.333 -31.1641 -147.334 -59.4971 -186.001s-67.166 -58 -116.499 -58c-9.33301 0 -19 0.833008 -29 2.5s-20.667 4.16699 -32 7.5l-76 27
c-9.33301 3.33301 -18.833 5.83301 -28.5 7.5s-18.5 2.5 -26.5 2.5c-18.667 0 -33.834 -6 -45.501 -18s-21.167 -32 -28.5 -60h-94c13.333 80 34.166 139.333 62.499 178s65.5 58 111.5 58c10.667 0 22.167 -1.16699 34.5 -3.5s25.5 -6.16602 39.5 -11.499l75 -24
c7.33301 -2.66699 14.666 -4.66699 21.999 -6s14.333 -2 21 -2c20 0 36.167 6.66699 48.5 20s22.166 35.333 29.499 66h92z" />
    <glyph glyph-name="Ograve" unicode="&#xd2;" horiz-adv-x="1157" 
d="M578 260c74.667 0 130.5 39.001 167.5 117.001s55.5 195.333 55.5 352c0 158 -18.5 276 -55.5 354s-92.833 117 -167.5 117s-130.334 -38.833 -167.001 -116.5s-55 -195.834 -55 -354.501c0 -158 18.333 -275.667 55 -353s92.334 -116 167.001 -116zM1092 709.001
c0 -222.667 -46.667 -399.501 -140 -530.501s-218 -196.5 -374 -196.5c-161.333 0 -287 65.833 -377 197.5s-135 314.834 -135 549.501c0 234 45.5 417.5 136.5 550.5s216.167 199.5 375.5 199.5c160 0 285.667 -68 377 -204s137 -324.667 137 -566zM297 1964h246l187 -371
h-134z" />
    <glyph glyph-name="Oacute" unicode="&#xd3;" horiz-adv-x="1157" 
d="M578 260c74.667 0 130.5 39.001 167.5 117.001s55.5 195.333 55.5 352c0 158 -18.5 276 -55.5 354s-92.833 117 -167.5 117s-130.334 -38.833 -167.001 -116.5s-55 -195.834 -55 -354.501c0 -158 18.333 -275.667 55 -353s92.334 -116 167.001 -116zM1092 709.001
c0 -222.667 -46.667 -399.501 -140 -530.501s-218 -196.5 -374 -196.5c-161.333 0 -287 65.833 -377 197.5s-135 314.834 -135 549.501c0 234 45.5 417.5 136.5 550.5s216.167 199.5 375.5 199.5c160 0 285.667 -68 377 -204s137 -324.667 137 -566zM863 1964l-299 -371
h-134l187 371h246z" />
    <glyph glyph-name="Ocircumflex" unicode="&#xd4;" horiz-adv-x="1157" 
d="M578 260c74.667 0 130.5 39.001 167.5 117.001s55.5 195.333 55.5 352c0 158 -18.5 276 -55.5 354s-92.833 117 -167.5 117s-130.334 -38.833 -167.001 -116.5s-55 -195.834 -55 -354.501c0 -158 18.333 -275.667 55 -353s92.334 -116 167.001 -116zM1092 709.001
c0 -222.667 -46.667 -399.501 -140 -530.501s-218 -196.5 -374 -196.5c-161.333 0 -287 65.833 -377 197.5s-135 314.834 -135 549.501c0 234 45.5 417.5 136.5 550.5s216.167 199.5 375.5 199.5c160 0 285.667 -68 377 -204s137 -324.667 137 -566zM312 1593l168 371h200
l168 -371h-121l-147 217l-147 -217h-121z" />
    <glyph glyph-name="Otilde" unicode="&#xd5;" horiz-adv-x="1157" 
d="M578 260c74.667 0 130.5 39.001 167.5 117.001s55.5 195.333 55.5 352c0 158 -18.5 276 -55.5 354s-92.833 117 -167.5 117s-130.334 -38.833 -167.001 -116.5s-55 -195.834 -55 -354.501c0 -158 18.333 -275.667 55 -353s92.334 -116 167.001 -116zM1092 709.001
c0 -222.667 -46.667 -399.501 -140 -530.501s-218 -196.5 -374 -196.5c-161.333 0 -287 65.833 -377 197.5s-135 314.834 -135 549.501c0 234 45.5 417.5 136.5 550.5s216.167 199.5 375.5 199.5c160 0 285.667 -68 377 -204s137 -324.667 137 -566zM848 1915
c-11.333 -85.333 -31.1641 -147.334 -59.4971 -186.001s-67.166 -58 -116.499 -58c-9.33301 0 -19 0.833008 -29 2.5s-20.667 4.16699 -32 7.5l-76 27c-9.33301 3.33301 -18.833 5.83301 -28.5 7.5s-18.5 2.5 -26.5 2.5c-18.667 0 -33.834 -6 -45.501 -18
s-21.167 -32 -28.5 -60h-94c13.333 80 34.166 139.333 62.499 178s65.5 58 111.5 58c10.667 0 22.167 -1.16699 34.5 -3.5s25.5 -6.16602 39.5 -11.499l75 -24c7.33301 -2.66699 14.666 -4.66699 21.999 -6s14.333 -2 21 -2c20 0 36.167 6.66699 48.5 20
s22.166 35.333 29.499 66h92z" />
    <glyph glyph-name="Odieresis" unicode="&#xd6;" horiz-adv-x="1157" 
d="M578 260c74.667 0 130.5 39.001 167.5 117.001s55.5 195.333 55.5 352c0 158 -18.5 276 -55.5 354s-92.833 117 -167.5 117s-130.334 -38.833 -167.001 -116.5s-55 -195.834 -55 -354.501c0 -158 18.333 -275.667 55 -353s92.334 -116 167.001 -116zM1092 709.001
c0 -222.667 -46.667 -399.501 -140 -530.501s-218 -196.5 -374 -196.5c-161.333 0 -287 65.833 -377 197.5s-135 314.834 -135 549.501c0 234 45.5 417.5 136.5 550.5s216.167 199.5 375.5 199.5c160 0 285.667 -68 377 -204s137 -324.667 137 -566zM297 1775
c0 32 12 59.8311 36 83.498s51.667 35.5 83 35.5c32.667 0 61 -11.833 85 -35.5s36 -51.5 36 -83.5c0 -33.333 -11.667 -61.666 -35 -84.999s-52 -35 -86 -35c-32.667 0 -60.667 11.833 -84 35.5s-35 51.834 -35 84.501zM625 1775c0 32 11.833 59.8311 35.5 83.498
s51.5 35.5 83.5 35.5c32.667 0 61 -11.833 85 -35.5s36 -51.5 36 -83.5c0 -33.333 -11.667 -61.666 -35 -84.999s-52 -35 -86 -35c-32.667 0 -60.667 11.833 -84 35.5s-35 51.834 -35 84.501z" />
    <glyph glyph-name="multiply" unicode="&#xd7;" horiz-adv-x="1706" 
d="M403 1188l459 -459l461 459l117 -117l-459 -461l459 -458l-117 -119l-461 461l-459 -461l-116 119l458 458l-458 461z" />
    <glyph glyph-name="Oslash" unicode="&#xd8;" horiz-adv-x="1157" 
d="M702 1163c-16.667 16 -35.168 27.832 -55.501 35.499s-43.166 11.5 -68.499 11.5c-78.667 0 -136.667 -38.5 -174 -115.5s-56 -196.833 -56 -359.5c0 -51.333 3 -101.666 9 -150.999s14.667 -98 26 -146zM163.999 -57.001l85.999 188.001
c-63.333 70 -109.833 155.333 -139.5 256s-44.5 222.334 -44.5 365.001c0 233.333 44.333 412.833 133 538.5s215 188.5 379 188.5c44 0 85.167 -5.33301 123.5 -16s75.5 -26.667 111.5 -48l64 141l96 -49l-74 -168c63.333 -69.333 111 -154.833 143 -256.5
s48 -218.834 48 -351.501c0 -234 -45.5 -417 -136.5 -549s-216.167 -198 -375.5 -198c-45.333 0 -87.666 5.66699 -126.999 17s-76.333 28.666 -111 51.999l-68 -151zM450.998 305c18 -18.667 36.998 -32.5 56.998 -41.5s42.333 -13.5 67 -13.5
c78.667 0 137.334 39.667 176.001 119s58 200 58 362c0 50 -3.16699 100.333 -9.5 151s-16.166 102.667 -29.499 156z" />
    <glyph glyph-name="Ugrave" unicode="&#xd9;" horiz-adv-x="1124" 
d="M1018 1460l0.000976562 -917c0 -112 -3.33301 -191.5 -10 -238.5s-17.667 -85.833 -33 -116.5c-35.333 -70 -86.5 -121.833 -153.5 -155.5s-153.167 -50.5 -258.5 -50.5s-191.833 16.833 -259.5 50.5s-118.834 85.5 -153.501 155.5
c-16 31.333 -27.333 70.666 -34 117.999s-10 126.333 -10 237v43v874h291v-940c0 -119.333 12.167 -196.166 36.5 -230.499s67.5 -51.5 129.5 -51.5c63.333 0 106.833 17.5 130.5 52.5s35.5 111.5 35.5 229.5v940h289zM280.001 1964h246l187 -371h-134z" />
    <glyph glyph-name="Uacute" unicode="&#xda;" horiz-adv-x="1124" 
d="M1018 1460l0.000976562 -917c0 -112 -3.33301 -191.5 -10 -238.5s-17.667 -85.833 -33 -116.5c-35.333 -70 -86.5 -121.833 -153.5 -155.5s-153.167 -50.5 -258.5 -50.5s-191.833 16.833 -259.5 50.5s-118.834 85.5 -153.501 155.5
c-16 31.333 -27.333 70.666 -34 117.999s-10 126.333 -10 237v43v874h291v-940c0 -119.333 12.167 -196.166 36.5 -230.499s67.5 -51.5 129.5 -51.5c63.333 0 106.833 17.5 130.5 52.5s35.5 111.5 35.5 229.5v940h289zM846.001 1964l-299 -371h-134l187 371h246z" />
    <glyph glyph-name="Ucircumflex" unicode="&#xdb;" horiz-adv-x="1124" 
d="M1018 1460l0.000976562 -917c0 -112 -3.33301 -191.5 -10 -238.5s-17.667 -85.833 -33 -116.5c-35.333 -70 -86.5 -121.833 -153.5 -155.5s-153.167 -50.5 -258.5 -50.5s-191.833 16.833 -259.5 50.5s-118.834 85.5 -153.501 155.5
c-16 31.333 -27.333 70.666 -34 117.999s-10 126.333 -10 237v43v874h291v-940c0 -119.333 12.167 -196.166 36.5 -230.499s67.5 -51.5 129.5 -51.5c63.333 0 106.833 17.5 130.5 52.5s35.5 111.5 35.5 229.5v940h289zM295.001 1593l168 371h200l168 -371h-121l-147 217
l-147 -217h-121z" />
    <glyph glyph-name="Udieresis" unicode="&#xdc;" horiz-adv-x="1124" 
d="M1018 1460l0.000976562 -917c0 -112 -3.33301 -191.5 -10 -238.5s-17.667 -85.833 -33 -116.5c-35.333 -70 -86.5 -121.833 -153.5 -155.5s-153.167 -50.5 -258.5 -50.5s-191.833 16.833 -259.5 50.5s-118.834 85.5 -153.501 155.5
c-16 31.333 -27.333 70.666 -34 117.999s-10 126.333 -10 237v43v874h291v-940c0 -119.333 12.167 -196.166 36.5 -230.499s67.5 -51.5 129.5 -51.5c63.333 0 106.833 17.5 130.5 52.5s35.5 111.5 35.5 229.5v940h289zM280.001 1775c0 32 12 59.8311 36 83.498
s51.667 35.5 83 35.5c32.667 0 61 -11.833 85 -35.5s36 -51.5 36 -83.5c0 -33.333 -11.667 -61.666 -35 -84.999s-52 -35 -86 -35c-32.667 0 -60.667 11.833 -84 35.5s-35 51.834 -35 84.501zM608.001 1775c0 32 11.833 59.8311 35.5 83.498s51.5 35.5 83.5 35.5
c32.667 0 61 -11.833 85 -35.5s36 -51.5 36 -83.5c0 -33.333 -11.667 -61.666 -35 -84.999s-52 -35 -86 -35c-32.667 0 -60.667 11.833 -84 35.5s-35 51.834 -35 84.501z" />
    <glyph glyph-name="Yacute" unicode="&#xdd;" horiz-adv-x="801" 
d="M254 0v686l-338 774h307l96 -264c18 -47.333 34.333 -94.5 49 -141.5s28.667 -94.833 42 -143.5c12 54 25 104.333 39 151s28.333 88.667 43 126l106 272h285l-340 -774v-686h-289zM684 1964l-299 -371h-134l187 371h246z" />
    <glyph glyph-name="Thorn" unicode="&#xde;" horiz-adv-x="932" 
d="M397 551c3.33301 0 8.5 -0.332031 15.5 -0.999023s12.167 -1 15.5 -1c62 0 109.167 17.667 141.5 53s48.5 86.666 48.5 153.999c0 68.667 -15.333 119.5 -46 152.5s-78.667 49.5 -144 49.5c-3.33301 0 -8.5 -0.333008 -15.5 -1s-12.167 -1 -15.5 -1v-405z
M115 0.000976562l-0.000976562 1460h282v-276h21c160.667 0 280 -34.833 358 -104.5s117 -176.167 117 -319.5c0 -137.333 -37.667 -243.666 -113 -318.999s-181 -113 -317 -113c-17.333 0 -30.666 0.166992 -39.999 0.5s-18 0.5 -26 0.5v-329h-282z" />
    <glyph glyph-name="germandbls" unicode="&#xdf;" horiz-adv-x="920" 
d="M104 0l0.00195312 1055c0 100 2.83301 172.667 8.5 218s15.167 84 28.5 116c23.333 54 61.333 95.833 114 125.5s115.667 44.5 189 44.5c122 0 215.333 -35.167 280 -105.5s97 -171.166 97 -302.499c0 -75.333 -12.5 -137.666 -37.5 -186.999
s-62.833 -86.666 -113.5 -111.999c62 -22.667 108.167 -64.667 138.5 -126s45.5 -143 45.5 -245c0 -161.333 -28.333 -282.833 -85 -364.5s-141 -122.5 -253 -122.5c-11.333 0 -24.333 0.5 -39 1.5s-30.334 2.83301 -47.001 5.5v265
c4.66699 -0.666992 9.16699 -1.16699 13.5 -1.5s10.833 -0.5 19.5 -0.5c44.667 0 76.334 19.5 95.001 58.5s28 107.5 28 205.5c0 64 -11.333 112.167 -34 144.5s-56.334 48.5 -101.001 48.5c-2 0 -5.33301 -0.333008 -10 -1s-8.33398 -1 -11.001 -1v233
c44 0 75.5 14.167 94.5 42.5s28.5 75.833 28.5 142.5c0 70.667 -8.16699 122.667 -24.5 156s-41.5 50 -75.5 50s-57.167 -16.167 -69.5 -48.5s-18.5 -104.833 -18.5 -217.5v-155v-922h-261z" />
    <glyph glyph-name="agrave" unicode="&#xe0;" horiz-adv-x="928" 
d="M571 506c0 89.333 -10.5 155.666 -31.5 198.999s-53.5 65 -97.5 65c-39.333 0 -67.833 -20.833 -85.5 -62.5s-26.5 -109.5 -26.5 -203.5c0 -93.333 9.83301 -163.166 29.5 -209.499s49.5 -69.5 89.5 -69.5c42.667 0 73.667 22.333 93 67s29 116 29 214zM825 0
l-254 -0.000976562v145c-28.667 -54 -61.5 -94.667 -98.5 -122s-77.833 -41 -122.5 -41c-93.333 0 -164.833 43.333 -214.5 130s-74.5 212.334 -74.5 377.001c0 160 25.5 283.667 76.5 371s122.5 131 214.5 131c43.333 0 82.833 -13 118.5 -39s69.167 -66.333 100.5 -121
v150h254v-981zM221 1485h246l187 -371h-134z" />
    <glyph glyph-name="aacute" unicode="&#xe1;" horiz-adv-x="928" 
d="M571 506c0 89.333 -10.5 155.666 -31.5 198.999s-53.5 65 -97.5 65c-39.333 0 -67.833 -20.833 -85.5 -62.5s-26.5 -109.5 -26.5 -203.5c0 -93.333 9.83301 -163.166 29.5 -209.499s49.5 -69.5 89.5 -69.5c42.667 0 73.667 22.333 93 67s29 116 29 214zM825 0
l-254 -0.000976562v145c-28.667 -54 -61.5 -94.667 -98.5 -122s-77.833 -41 -122.5 -41c-93.333 0 -164.833 43.333 -214.5 130s-74.5 212.334 -74.5 377.001c0 160 25.5 283.667 76.5 371s122.5 131 214.5 131c43.333 0 82.833 -13 118.5 -39s69.167 -66.333 100.5 -121
v150h254v-981zM787 1485l-299 -371h-134l187 371h246z" />
    <glyph glyph-name="acircumflex" unicode="&#xe2;" horiz-adv-x="928" 
d="M571 506c0 89.333 -10.5 155.666 -31.5 198.999s-53.5 65 -97.5 65c-39.333 0 -67.833 -20.833 -85.5 -62.5s-26.5 -109.5 -26.5 -203.5c0 -93.333 9.83301 -163.166 29.5 -209.499s49.5 -69.5 89.5 -69.5c42.667 0 73.667 22.333 93 67s29 116 29 214zM825 0
l-254 -0.000976562v145c-28.667 -54 -61.5 -94.667 -98.5 -122s-77.833 -41 -122.5 -41c-93.333 0 -164.833 43.333 -214.5 130s-74.5 212.334 -74.5 377.001c0 160 25.5 283.667 76.5 371s122.5 131 214.5 131c43.333 0 82.833 -13 118.5 -39s69.167 -66.333 100.5 -121
v150h254v-981zM236 1114l168 371h200l168 -371h-121l-147 217l-147 -217h-121z" />
    <glyph glyph-name="atilde" unicode="&#xe3;" horiz-adv-x="928" 
d="M571 506c0 89.333 -10.5 155.666 -31.5 198.999s-53.5 65 -97.5 65c-39.333 0 -67.833 -20.833 -85.5 -62.5s-26.5 -109.5 -26.5 -203.5c0 -93.333 9.83301 -163.166 29.5 -209.499s49.5 -69.5 89.5 -69.5c42.667 0 73.667 22.333 93 67s29 116 29 214zM825 0
l-254 -0.000976562v145c-28.667 -54 -61.5 -94.667 -98.5 -122s-77.833 -41 -122.5 -41c-93.333 0 -164.833 43.333 -214.5 130s-74.5 212.334 -74.5 377.001c0 160 25.5 283.667 76.5 371s122.5 131 214.5 131c43.333 0 82.833 -13 118.5 -39s69.167 -66.333 100.5 -121
v150h254v-981zM772 1436c-11.333 -85.333 -31.1641 -147.334 -59.4971 -186.001s-67.166 -58 -116.499 -58c-9.33301 0 -19 0.833008 -29 2.5s-20.667 4.16699 -32 7.5l-76 27c-9.33301 3.33301 -18.833 5.83301 -28.5 7.5s-18.5 2.5 -26.5 2.5
c-18.667 0 -33.834 -6 -45.501 -18s-21.167 -32 -28.5 -60h-94c13.333 80 34.166 139.333 62.499 178s65.5 58 111.5 58c10.667 0 22.167 -1.16699 34.5 -3.5s25.5 -6.16602 39.5 -11.499l75 -24c7.33301 -2.66699 14.666 -4.66699 21.999 -6s14.333 -2 21 -2
c20 0 36.167 6.66699 48.5 20s22.166 35.333 29.499 66h92z" />
    <glyph glyph-name="adieresis" unicode="&#xe4;" horiz-adv-x="928" 
d="M571 506c0 89.333 -10.5 155.666 -31.5 198.999s-53.5 65 -97.5 65c-39.333 0 -67.833 -20.833 -85.5 -62.5s-26.5 -109.5 -26.5 -203.5c0 -93.333 9.83301 -163.166 29.5 -209.499s49.5 -69.5 89.5 -69.5c42.667 0 73.667 22.333 93 67s29 116 29 214zM825 0
l-254 -0.000976562v145c-28.667 -54 -61.5 -94.667 -98.5 -122s-77.833 -41 -122.5 -41c-93.333 0 -164.833 43.333 -214.5 130s-74.5 212.334 -74.5 377.001c0 160 25.5 283.667 76.5 371s122.5 131 214.5 131c43.333 0 82.833 -13 118.5 -39s69.167 -66.333 100.5 -121
v150h254v-981zM221 1296c0 32 12 59.8311 36 83.498s51.667 35.5 83 35.5c32.667 0 61 -11.833 85 -35.5s36 -51.5 36 -83.5c0 -33.333 -11.667 -61.666 -35 -84.999s-52 -35 -86 -35c-32.667 0 -60.667 11.833 -84 35.5s-35 51.834 -35 84.501zM549 1296
c0 32 11.833 59.8311 35.5 83.498s51.5 35.5 83.5 35.5c32.667 0 61 -11.833 85 -35.5s36 -51.5 36 -83.5c0 -33.333 -11.667 -61.666 -35 -84.999s-52 -35 -86 -35c-32.667 0 -60.667 11.833 -84 35.5s-35 51.834 -35 84.501z" />
    <glyph glyph-name="aring" unicode="&#xe5;" horiz-adv-x="928" 
d="M391 1259c0 -27.333 10.167 -50.832 30.5 -70.499s44.5 -29.5 72.5 -29.5c26.667 0 50 10 70 30s30 43.667 30 71s-9.83301 51.166 -29.5 71.499s-43.167 30.5 -70.5 30.5c-28 0 -51.833 -9.83301 -71.5 -29.5s-30.167 -44.167 -31.5 -73.5zM270 1260
c0 62 21.833 114.668 65.5 158.001s96.5 65 158.5 65c61.333 0 113.5 -21.667 156.5 -65s64.5 -96 64.5 -158s-21.5 -114.5 -64.5 -157.5s-95.167 -64.5 -156.5 -64.5c-62 0 -114.833 21.667 -158.5 65s-65.5 95.666 -65.5 156.999zM825 0.00195312l-258.001 -0.000976562
v145c-26.667 -54 -58.167 -94.667 -94.5 -122s-77.166 -41 -122.499 -41c-93.333 0 -164.833 43.333 -214.5 130s-74.5 212.334 -74.5 377.001c0 160 25.5 283.667 76.5 371s122.5 131 214.5 131c44 0 83.667 -13.167 119 -39.5s67.333 -66.5 96 -120.5v150h258v-981z
M566.999 506.001c0 91.333 -10 158.166 -30 200.499s-51.667 63.5 -95 63.5c-39.333 0 -67.833 -20.833 -85.5 -62.5s-26.5 -109.5 -26.5 -203.5c0 -93.333 9.83301 -163.166 29.5 -209.499s49.5 -69.5 89.5 -69.5c41.333 0 71.333 21.833 90 65.5s28 115.5 28 215.5z" />
    <glyph glyph-name="ae" unicode="&#xe6;" horiz-adv-x="1401" 
d="M1122 572c-1.33301 71.333 -14 124.167 -38 158.5s-60.333 51.5 -109 51.5c-48 0 -85 -17.5 -111 -52.5s-39 -84.833 -39 -149.5v-9zM422 170.001c44 0 77.499 10.167 100.499 30.5s34.5 49.833 34.5 88.5s-11.333 67.834 -34 87.501s-56.334 29.5 -101.001 29.5
c-45.333 0 -79.166 -9.83301 -101.499 -29.5s-33.5 -48.834 -33.5 -87.501c0 -39.333 11.333 -69 34 -89s56.334 -30 101.001 -30zM824.999 420.001l-0.000976562 -9.99902c0 -71.333 14 -126.833 42 -166.5s66.667 -59.5 116 -59.5c30.667 0 56.834 9.16699 78.501 27.5
s39.167 46.166 52.5 83.499h234c-22 -98 -66.333 -174.667 -133 -230s-148 -83 -244 -83c-64.667 0 -121 11.5 -169 34.5s-92.667 59.833 -134 110.5c-37.333 -49.333 -80 -85.833 -128 -109.5s-103 -35.5 -165 -35.5c-104.667 0 -187.5 28.333 -248.5 85
s-91.5 133.334 -91.5 230.001c0 86.667 26.167 156.5 78.5 209.5s120.833 79.5 205.5 79.5c38.667 0 76.167 -4 112.5 -12s73.166 -20.333 110.499 -37c2 16 3.33301 28.167 4 36.5s1 15.166 1 20.499c0 64.667 -16.167 112.167 -48.5 142.5s-83.166 45.5 -152.499 45.5
c-35.333 0 -71.666 -5.5 -108.999 -16.5s-76.666 -27.833 -117.999 -50.5v233c50 17.333 98 30.166 144 38.499s89.333 12.5 130 12.5c66.667 0 124.167 -11.167 172.5 -33.5s87.833 -56.166 118.5 -101.499c33.333 44.667 74.166 78.334 122.499 101.001
s103.166 34 164.499 34c129.333 0 226.833 -44.833 292.5 -134.5s98.5 -222.834 98.5 -399.501v-45h-537z" />
    <glyph glyph-name="ccedilla" unicode="&#xe7;" horiz-adv-x="651" 
d="M614 702c-21.333 16 -42 27.6699 -62 35.0029s-40 11 -60 11c-52 0 -93.333 -22.5 -124 -67.5s-46 -105.833 -46 -182.5c0 -80.667 15.5 -142.834 46.5 -186.501s74.833 -65.5 131.5 -65.5c21.333 0 41.333 4.16699 60 12.5s36.667 21.166 54 38.499v-258
c-28 -19.333 -57.5 -33.666 -88.5 -42.999s-63.5 -14 -97.5 -14c-114.667 0 -205.834 45.667 -273.501 137s-101.5 215.666 -101.5 372.999c0 155.333 34 278.666 102 369.999s159 137 273 137c32.667 0 64.334 -3.16699 95.001 -9.5s61 -15.833 91 -28.5v-259z
M161 -437.997l-0.00195312 129c42.667 -14 82.167 -24.667 118.5 -32s67.166 -11 92.499 -11c28.667 0 50.167 6.16699 64.5 18.5s21.5 30.5 21.5 54.5c0 24.667 -8.66699 42.5 -26 53.5s-44.666 16.5 -81.999 16.5c-10.667 0 -19.167 -0.166992 -25.5 -0.5
s-12.166 -0.833008 -17.499 -1.5v211h96v-90h12c66 0 115.667 -16 149 -48s50 -79.667 50 -143c0 -66.667 -19 -116.667 -57 -150s-94.667 -50 -170 -50c-28.667 0 -62.167 3.66699 -100.5 11s-80.166 18 -125.499 32z" />
    <glyph glyph-name="egrave" unicode="&#xe8;" horiz-adv-x="877" 
d="M600 574c-2 71.333 -14.832 124.167 -38.499 158.5s-59.167 51.5 -106.5 51.5c-46.667 0 -82.334 -18 -107.001 -54s-37 -88.333 -37 -157zM311.001 418.001l-0.000976562 -7.99902c0 -73.333 13 -129.666 39 -168.999s63 -59 111 -59c30.667 0 56.834 9.33301 78.501 28
s39.167 47 52.5 85h233c-21.333 -98 -65.5 -174.667 -132.5 -230s-149.167 -83 -246.5 -83c-122 0 -219 45.667 -291 137s-108 214.666 -108 369.999c0 157.333 36 281.666 108 372.999s169 137 291 137c129.333 0 227 -45 293 -135s99 -223 99 -399v-47h-527zM161 1485h246
l187 -371h-134z" />
    <glyph glyph-name="eacute" unicode="&#xe9;" horiz-adv-x="877" 
d="M600 574c-2 71.333 -14.832 124.167 -38.499 158.5s-59.167 51.5 -106.5 51.5c-46.667 0 -82.334 -18 -107.001 -54s-37 -88.333 -37 -157zM311.001 418.001l-0.000976562 -7.99902c0 -73.333 13 -129.666 39 -168.999s63 -59 111 -59c30.667 0 56.834 9.33301 78.501 28
s39.167 47 52.5 85h233c-21.333 -98 -65.5 -174.667 -132.5 -230s-149.167 -83 -246.5 -83c-122 0 -219 45.667 -291 137s-108 214.666 -108 369.999c0 157.333 36 281.666 108 372.999s169 137 291 137c129.333 0 227 -45 293 -135s99 -223 99 -399v-47h-527zM727 1485
l-299 -371h-134l187 371h246z" />
    <glyph glyph-name="ecircumflex" unicode="&#xea;" horiz-adv-x="877" 
d="M600 574c-2 71.333 -14.832 124.167 -38.499 158.5s-59.167 51.5 -106.5 51.5c-46.667 0 -82.334 -18 -107.001 -54s-37 -88.333 -37 -157zM311.001 418.001l-0.000976562 -7.99902c0 -73.333 13 -129.666 39 -168.999s63 -59 111 -59c30.667 0 56.834 9.33301 78.501 28
s39.167 47 52.5 85h233c-21.333 -98 -65.5 -174.667 -132.5 -230s-149.167 -83 -246.5 -83c-122 0 -219 45.667 -291 137s-108 214.666 -108 369.999c0 157.333 36 281.666 108 372.999s169 137 291 137c129.333 0 227 -45 293 -135s99 -223 99 -399v-47h-527zM176 1114
l168 371h200l168 -371h-121l-147 217l-147 -217h-121z" />
    <glyph glyph-name="edieresis" unicode="&#xeb;" horiz-adv-x="877" 
d="M600 574c-2 71.333 -14.832 124.167 -38.499 158.5s-59.167 51.5 -106.5 51.5c-46.667 0 -82.334 -18 -107.001 -54s-37 -88.333 -37 -157zM311.001 418.001l-0.000976562 -7.99902c0 -73.333 13 -129.666 39 -168.999s63 -59 111 -59c30.667 0 56.834 9.33301 78.501 28
s39.167 47 52.5 85h233c-21.333 -98 -65.5 -174.667 -132.5 -230s-149.167 -83 -246.5 -83c-122 0 -219 45.667 -291 137s-108 214.666 -108 369.999c0 157.333 36 281.666 108 372.999s169 137 291 137c129.333 0 227 -45 293 -135s99 -223 99 -399v-47h-527zM161 1296
c0 32 12 59.8311 36 83.498s51.667 35.5 83 35.5c32.667 0 61 -11.833 85 -35.5s36 -51.5 36 -83.5c0 -33.333 -11.667 -61.666 -35 -84.999s-52 -35 -86 -35c-32.667 0 -60.667 11.833 -84 35.5s-35 51.834 -35 84.501zM489 1296c0 32 11.833 59.8311 35.5 83.498
s51.5 35.5 83.5 35.5c32.667 0 61 -11.833 85 -35.5s36 -51.5 36 -83.5c0 -33.333 -11.667 -61.666 -35 -84.999s-52 -35 -86 -35c-32.667 0 -60.667 11.833 -84 35.5s-35 51.834 -35 84.501z" />
    <glyph glyph-name="igrave" unicode="&#xec;" horiz-adv-x="483" 
d="M106 0v981h271v-981h-271zM-41 1485h246l187 -371h-134z" />
    <glyph glyph-name="iacute" unicode="&#xed;" horiz-adv-x="483" 
d="M106 0v981h271v-981h-271zM525 1485l-299 -371h-134l187 371h246z" />
    <glyph glyph-name="icircumflex" unicode="&#xee;" horiz-adv-x="483" 
d="M106 0v981h271v-981h-271zM-26 1114l168 371h200l168 -371h-121l-147 217l-147 -217h-121z" />
    <glyph glyph-name="idieresis" unicode="&#xef;" horiz-adv-x="483" 
d="M106 0v981h271v-981h-271zM-41 1296c0 32 12 59.8311 36 83.498s51.667 35.5 83 35.5c32.667 0 61 -11.833 85 -35.5s36 -51.5 36 -83.5c0 -33.333 -11.667 -61.666 -35 -84.999s-52 -35 -86 -35c-32.667 0 -60.667 11.833 -84 35.5s-35 51.834 -35 84.501zM287 1296
c0 32 11.833 59.8311 35.5 83.498s51.5 35.5 83.5 35.5c32.667 0 61 -11.833 85 -35.5s36 -51.5 36 -83.5c0 -33.333 -11.667 -61.666 -35 -84.999s-52 -35 -86 -35c-32.667 0 -60.667 11.833 -84 35.5s-35 51.834 -35 84.501z" />
    <glyph glyph-name="eth" unicode="&#xf0;" horiz-adv-x="909" 
d="M528 983c-16.667 44 -32.1641 83 -46.4971 117s-28.833 65.333 -43.5 94l-200 -94l-62 133l195 88c-34 62.667 -59.833 109 -77.5 139s-34.834 57.333 -51.501 82h264c12.667 -25.333 24.5 -48 35.5 -68s22.167 -39 33.5 -57l160 74l60 -131l-150 -70
c76 -146 131.5 -281 166.5 -405s52.5 -245.667 52.5 -365c0 -169.333 -36 -301.333 -108 -396s-172.333 -142 -301 -142c-124.667 0 -223.834 45.833 -297.501 137.5s-110.5 215.834 -110.5 372.501c0 153.333 36.667 276.166 110 368.499s170.666 138.5 291.999 138.5
c14 0 27.667 -1.33301 41 -4s26 -6.66699 38 -12zM455.003 219c48 0 85.167 23.833 111.5 71.5s39.5 115.5 39.5 203.5c0 87.333 -13.167 154.833 -39.5 202.5s-63.5 71.5 -111.5 71.5s-85 -23.667 -111 -71s-39 -115 -39 -203c0 -88.667 13 -156.667 39 -204
s63 -71 111 -71z" />
    <glyph glyph-name="ntilde" unicode="&#xf1;" horiz-adv-x="915" 
d="M553 0l0.000976562 593.999c0 56 -6.66699 94.5 -20 115.5s-36 31.5 -68 31.5c-34.667 0 -59.667 -12.333 -75 -37s-23 -65.334 -23 -122.001v-582h-271v981h252v-152c35.333 54.667 75.166 95.334 119.499 122.001s94.5 40 150.5 40c76.667 0 130 -21.667 160 -65
s45 -128.666 45 -255.999v-670h-270zM727.001 1436c-11.333 -85.333 -31.1641 -147.334 -59.4971 -186.001s-67.166 -58 -116.499 -58c-9.33301 0 -19 0.833008 -29 2.5s-20.667 4.16699 -32 7.5l-76 27c-9.33301 3.33301 -18.833 5.83301 -28.5 7.5s-18.5 2.5 -26.5 2.5
c-18.667 0 -33.834 -6 -45.501 -18s-21.167 -32 -28.5 -60h-94c13.333 80 34.166 139.333 62.499 178s65.5 58 111.5 58c10.667 0 22.167 -1.16699 34.5 -3.5s25.5 -6.16602 39.5 -11.499l75 -24c7.33301 -2.66699 14.666 -4.66699 21.999 -6s14.333 -2 21 -2
c20 0 36.167 6.66699 48.5 20s22.166 35.333 29.499 66h92z" />
    <glyph glyph-name="ograve" unicode="&#xf2;" horiz-adv-x="909" 
d="M455 219c48 0 85.167 23.833 111.5 71.5s39.5 115.5 39.5 203.5c0 87.333 -13.167 154.833 -39.5 202.5s-63.5 71.5 -111.5 71.5s-85 -23.667 -111 -71s-39 -115 -39 -203c0 -88.667 13 -156.667 39 -204s63 -71 111 -71zM864 492
c0 -156 -37.167 -279.999 -111.5 -371.999s-173.5 -138 -297.5 -138c-124.667 0 -223.834 45.833 -297.501 137.5s-110.5 215.834 -110.5 372.501c0 155.333 36.833 278.666 110.5 369.999s172.834 137 297.501 137s224 -45.833 298 -137.5s111 -214.834 111 -369.501z
M172 1485h246l187 -371h-134z" />
    <glyph glyph-name="oacute" unicode="&#xf3;" horiz-adv-x="909" 
d="M455 219c48 0 85.167 23.833 111.5 71.5s39.5 115.5 39.5 203.5c0 87.333 -13.167 154.833 -39.5 202.5s-63.5 71.5 -111.5 71.5s-85 -23.667 -111 -71s-39 -115 -39 -203c0 -88.667 13 -156.667 39 -204s63 -71 111 -71zM864 492
c0 -156 -37.167 -279.999 -111.5 -371.999s-173.5 -138 -297.5 -138c-124.667 0 -223.834 45.833 -297.501 137.5s-110.5 215.834 -110.5 372.501c0 155.333 36.833 278.666 110.5 369.999s172.834 137 297.501 137s224 -45.833 298 -137.5s111 -214.834 111 -369.501z
M738 1485l-299 -371h-134l187 371h246z" />
    <glyph glyph-name="ocircumflex" unicode="&#xf4;" horiz-adv-x="909" 
d="M455 219c48 0 85.167 23.833 111.5 71.5s39.5 115.5 39.5 203.5c0 87.333 -13.167 154.833 -39.5 202.5s-63.5 71.5 -111.5 71.5s-85 -23.667 -111 -71s-39 -115 -39 -203c0 -88.667 13 -156.667 39 -204s63 -71 111 -71zM864 492
c0 -156 -37.167 -279.999 -111.5 -371.999s-173.5 -138 -297.5 -138c-124.667 0 -223.834 45.833 -297.501 137.5s-110.5 215.834 -110.5 372.501c0 155.333 36.833 278.666 110.5 369.999s172.834 137 297.501 137s224 -45.833 298 -137.5s111 -214.834 111 -369.501z
M187 1114l168 371h200l168 -371h-121l-147 217l-147 -217h-121z" />
    <glyph glyph-name="otilde" unicode="&#xf5;" horiz-adv-x="909" 
d="M455 219c48 0 85.167 23.833 111.5 71.5s39.5 115.5 39.5 203.5c0 87.333 -13.167 154.833 -39.5 202.5s-63.5 71.5 -111.5 71.5s-85 -23.667 -111 -71s-39 -115 -39 -203c0 -88.667 13 -156.667 39 -204s63 -71 111 -71zM864 492
c0 -156 -37.167 -279.999 -111.5 -371.999s-173.5 -138 -297.5 -138c-124.667 0 -223.834 45.833 -297.501 137.5s-110.5 215.834 -110.5 372.501c0 155.333 36.833 278.666 110.5 369.999s172.834 137 297.501 137s224 -45.833 298 -137.5s111 -214.834 111 -369.501z
M723 1436c-11.333 -85.333 -31.1641 -147.334 -59.4971 -186.001s-67.166 -58 -116.499 -58c-9.33301 0 -19 0.833008 -29 2.5s-20.667 4.16699 -32 7.5l-76 27c-9.33301 3.33301 -18.833 5.83301 -28.5 7.5s-18.5 2.5 -26.5 2.5c-18.667 0 -33.834 -6 -45.501 -18
s-21.167 -32 -28.5 -60h-94c13.333 80 34.166 139.333 62.499 178s65.5 58 111.5 58c10.667 0 22.167 -1.16699 34.5 -3.5s25.5 -6.16602 39.5 -11.499l75 -24c7.33301 -2.66699 14.666 -4.66699 21.999 -6s14.333 -2 21 -2c20 0 36.167 6.66699 48.5 20
s22.166 35.333 29.499 66h92z" />
    <glyph glyph-name="odieresis" unicode="&#xf6;" horiz-adv-x="909" 
d="M455 219c48 0 85.167 23.833 111.5 71.5s39.5 115.5 39.5 203.5c0 87.333 -13.167 154.833 -39.5 202.5s-63.5 71.5 -111.5 71.5s-85 -23.667 -111 -71s-39 -115 -39 -203c0 -88.667 13 -156.667 39 -204s63 -71 111 -71zM864 492
c0 -156 -37.167 -279.999 -111.5 -371.999s-173.5 -138 -297.5 -138c-124.667 0 -223.834 45.833 -297.501 137.5s-110.5 215.834 -110.5 372.501c0 155.333 36.833 278.666 110.5 369.999s172.834 137 297.501 137s224 -45.833 298 -137.5s111 -214.834 111 -369.501z
M172 1296c0 32 12 59.8311 36 83.498s51.667 35.5 83 35.5c32.667 0 61 -11.833 85 -35.5s36 -51.5 36 -83.5c0 -33.333 -11.667 -61.666 -35 -84.999s-52 -35 -86 -35c-32.667 0 -60.667 11.833 -84 35.5s-35 51.834 -35 84.501zM500 1296c0 32 11.833 59.8311 35.5 83.498
s51.5 35.5 83.5 35.5c32.667 0 61 -11.833 85 -35.5s36 -51.5 36 -83.5c0 -33.333 -11.667 -61.666 -35 -84.999s-52 -35 -86 -35c-32.667 0 -60.667 11.833 -84 35.5s-35 51.834 -35 84.501z" />
    <glyph glyph-name="divide" unicode="&#xf7;" horiz-adv-x="1706" 
d="M854 367c38 0 70.333 -13.501 97 -40.501s40 -59.5 40 -97.5c0 -37.333 -13.167 -69.166 -39.5 -95.499s-58.833 -39.5 -97.5 -39.5s-71.167 13 -97.5 39s-39.5 58 -39.5 96s13.5 70.5 40.5 97.5s59.167 40.5 96.5 40.5zM254 693.999h1198v-166h-1198v166zM854 1128
c38 0 70.333 -13.668 97 -41.001s40 -60 40 -98c0 -37.333 -13.167 -69.166 -39.5 -95.499s-58.833 -39.5 -97.5 -39.5s-71.167 13 -97.5 39s-39.5 58 -39.5 96s13.5 70.667 40.5 98s59.167 41 96.5 41z" />
    <glyph glyph-name="oslash" unicode="&#xf8;" horiz-adv-x="909" 
d="M530 748c-10.667 8.66699 -22.333 15.166 -35 19.499s-26.667 6.5 -42 6.5c-48.667 0 -86.167 -24.667 -112.5 -74s-39.5 -119.666 -39.5 -210.999c0 -32.667 1.5 -61.5 4.5 -86.5s7.83301 -47.833 14.5 -68.5zM377.001 241.999c10 -10 21.168 -17.333 33.501 -22
s27.166 -7 44.499 -7c49.333 0 87.5 24.333 114.5 73s40.5 118 40.5 208c0 31.333 -1.66699 60 -5 86s-8.33301 50.333 -15 73zM123.002 -59.001l70 138.999c-47.333 44 -83.5 100 -108.5 168s-37.5 144.333 -37.5 229c0 162.667 36.5 290.667 109.5 384
s172.5 140 298.5 140c35.333 0 68 -3.5 98 -10.5s58 -17.833 84 -32.5l57 117l82 -45l-61 -127c50.667 -51.333 88.167 -110.166 112.5 -176.499s36.5 -144.5 36.5 -234.5c0 -156 -37.167 -280 -111.5 -372s-173.5 -138 -297.5 -138c-35.333 0 -68 3.33301 -98 10
s-59 17 -87 31l-65 -127z" />
    <glyph glyph-name="ugrave" unicode="&#xf9;" horiz-adv-x="903" 
d="M811 981l0.000976562 -508c0 -196 -25.833 -326.833 -77.5 -392.5s-145.167 -98.5 -280.5 -98.5c-136 0 -230.167 32.667 -282.5 98s-78.5 196.333 -78.5 393v508h264v-631c0 -51.333 7 -86 21 -104s38.667 -27 74 -27s60.166 9.33301 74.499 28s21.5 53 21.5 103v631
h264zM170.001 1485h246l187 -371h-134z" />
    <glyph glyph-name="uacute" unicode="&#xfa;" horiz-adv-x="903" 
d="M811 981l0.000976562 -508c0 -196 -25.833 -326.833 -77.5 -392.5s-145.167 -98.5 -280.5 -98.5c-136 0 -230.167 32.667 -282.5 98s-78.5 196.333 -78.5 393v508h264v-631c0 -51.333 7 -86 21 -104s38.667 -27 74 -27s60.166 9.33301 74.499 28s21.5 53 21.5 103v631
h264zM736.001 1485l-299 -371h-134l187 371h246z" />
    <glyph glyph-name="ucircumflex" unicode="&#xfb;" horiz-adv-x="903" 
d="M811 981l0.000976562 -508c0 -196 -25.833 -326.833 -77.5 -392.5s-145.167 -98.5 -280.5 -98.5c-136 0 -230.167 32.667 -282.5 98s-78.5 196.333 -78.5 393v508h264v-631c0 -51.333 7 -86 21 -104s38.667 -27 74 -27s60.166 9.33301 74.499 28s21.5 53 21.5 103v631
h264zM185.001 1114l168 371h200l168 -371h-121l-147 217l-147 -217h-121z" />
    <glyph glyph-name="udieresis" unicode="&#xfc;" horiz-adv-x="903" 
d="M811 981l0.000976562 -508c0 -196 -25.833 -326.833 -77.5 -392.5s-145.167 -98.5 -280.5 -98.5c-136 0 -230.167 32.667 -282.5 98s-78.5 196.333 -78.5 393v508h264v-631c0 -51.333 7 -86 21 -104s38.667 -27 74 -27s60.166 9.33301 74.499 28s21.5 53 21.5 103v631
h264zM170.001 1296c0 32 12 59.8311 36 83.498s51.667 35.5 83 35.5c32.667 0 61 -11.833 85 -35.5s36 -51.5 36 -83.5c0 -33.333 -11.667 -61.666 -35 -84.999s-52 -35 -86 -35c-32.667 0 -60.667 11.833 -84 35.5s-35 51.834 -35 84.501zM498.001 1296
c0 32 11.833 59.8311 35.5 83.498s51.5 35.5 83.5 35.5c32.667 0 61 -11.833 85 -35.5s36 -51.5 36 -83.5c0 -33.333 -11.667 -61.666 -35 -84.999s-52 -35 -86 -35c-32.667 0 -60.667 11.833 -84 35.5s-35 51.834 -35 84.501z" />
    <glyph glyph-name="yacute" unicode="&#xfd;" horiz-adv-x="758" 
d="M135 -395l120.998 394.999l-254 981h266l95 -435c5.33301 -27.333 9.83301 -56.666 13.5 -87.999s5.83398 -63 6.50098 -95c8.66699 71.333 14.834 119 18.501 143s7.16699 43.333 10.5 58l90 417h266l-369 -1376h-264zM661.998 1485l-299 -371h-134l187 371h246z" />
    <glyph glyph-name="thorn" unicode="&#xfe;" horiz-adv-x="928" 
d="M483 770c-42 0 -72.666 -20.668 -91.999 -62.001s-29 -108.666 -29 -201.999c0 -102 9.16699 -174.667 27.5 -218s48.166 -65 89.499 -65c40 0 69.5 23.167 88.5 69.5s28.5 118.833 28.5 217.5c0 91.333 -9 157.5 -27 198.5s-46.667 61.5 -86 61.5zM102.001 -395.001
l-0.00292969 1945h260v-708c28 49.333 59.833 86.5 95.5 111.5s74.834 37.5 117.501 37.5c93.333 0 164.833 -43.5 214.5 -130.5s74.5 -212.167 74.5 -375.5c0 -161.333 -24.667 -286.333 -74 -375s-118.666 -133 -207.999 -133c-47.333 0 -89.666 14.167 -126.999 42.5
s-68.333 69.5 -93 123.5v-538h-260z" />
    <glyph glyph-name="ydieresis" unicode="&#xff;" horiz-adv-x="758" 
d="M135 -395l120.998 394.999l-254 981h266l95 -435c5.33301 -27.333 9.83301 -56.666 13.5 -87.999s5.83398 -63 6.50098 -95c8.66699 71.333 14.834 119 18.501 143s7.16699 43.333 10.5 58l90 417h266l-369 -1376h-264zM95.998 1296c0 32 12 59.8311 36 83.498
s51.667 35.5 83 35.5c32.667 0 61 -11.833 85 -35.5s36 -51.5 36 -83.5c0 -33.333 -11.667 -61.666 -35 -84.999s-52 -35 -86 -35c-32.667 0 -60.667 11.833 -84 35.5s-35 51.834 -35 84.501zM423.998 1296c0 32 11.833 59.8311 35.5 83.498s51.5 35.5 83.5 35.5
c32.667 0 61 -11.833 85 -35.5s36 -51.5 36 -83.5c0 -33.333 -11.667 -61.666 -35 -84.999s-52 -35 -86 -35c-32.667 0 -60.667 11.833 -84 35.5s-35 51.834 -35 84.501z" />
    <glyph glyph-name="Cacute" unicode="&#x106;" horiz-adv-x="932" 
d="M866 16c-28 -11.333 -56.1689 -19.8301 -84.502 -25.4971s-56.833 -8.5 -85.5 -8.5c-186 0 -337.167 67.667 -453.5 203s-174.5 312.666 -174.5 531.999c0 228 56.833 412 170.5 552s262.167 210 445.5 210c34 0 66 -2.83301 96 -8.5s58.667 -14.5 86 -26.5v-273
c-28 11.333 -55.167 19.666 -81.5 24.999s-52.166 8 -77.499 8c-97.333 0 -176.333 -43 -237 -129s-91 -200 -91 -342c0 -136.667 31.167 -247.334 93.5 -332.001s142.5 -127 240.5 -127c24.667 0 49.834 3 75.501 9s51.5 14.667 77.5 26v-293zM911.998 1964l-299 -371h-134
l187 371h246z" />
    <glyph glyph-name="cacute" unicode="&#x107;" horiz-adv-x="651" 
d="M614 702c-21.333 16 -42 27.6699 -62 35.0029s-40 11 -60 11c-52 0 -93.333 -22.5 -124 -67.5s-46 -105.833 -46 -182.5c0 -80.667 15.5 -142.834 46.5 -186.501s74.833 -65.5 131.5 -65.5c21.333 0 41.333 4.16699 60 12.5s36.667 21.166 54 38.499v-258
c-28 -19.333 -57.5 -33.666 -88.5 -42.999s-63.5 -14 -97.5 -14c-114.667 0 -205.834 45.667 -273.501 137s-101.5 215.666 -101.5 372.999c0 155.333 34 278.666 102 369.999s159 137 273 137c32.667 0 64.334 -3.16699 95.001 -9.5s61 -15.833 91 -28.5v-259zM709 1485
l-299 -371h-134l187 371h246z" />
    <glyph glyph-name="Ccaron" unicode="&#x10c;" horiz-adv-x="932" 
d="M866 16c-28 -11.333 -56.1689 -19.8301 -84.502 -25.4971s-56.833 -8.5 -85.5 -8.5c-186 0 -337.167 67.667 -453.5 203s-174.5 312.666 -174.5 531.999c0 228 56.833 412 170.5 552s262.167 210 445.5 210c34 0 66 -2.83301 96 -8.5s58.667 -14.5 86 -26.5v-273
c-28 11.333 -55.167 19.666 -81.5 24.999s-52.166 8 -77.499 8c-97.333 0 -176.333 -43 -237 -129s-91 -200 -91 -342c0 -136.667 31.167 -247.334 93.5 -332.001s142.5 -127 240.5 -127c24.667 0 49.834 3 75.501 9s51.5 14.667 77.5 26v-293zM360.998 1964h121l147 -219
l147 219h121l-168 -371h-200z" />
    <glyph glyph-name="ccaron" unicode="&#x10d;" horiz-adv-x="651" 
d="M614 702c-21.333 16 -42 27.6699 -62 35.0029s-40 11 -60 11c-52 0 -93.333 -22.5 -124 -67.5s-46 -105.833 -46 -182.5c0 -80.667 15.5 -142.834 46.5 -186.501s74.833 -65.5 131.5 -65.5c21.333 0 41.333 4.16699 60 12.5s36.667 21.166 54 38.499v-258
c-28 -19.333 -57.5 -33.666 -88.5 -42.999s-63.5 -14 -97.5 -14c-114.667 0 -205.834 45.667 -273.501 137s-101.5 215.666 -101.5 372.999c0 155.333 34 278.666 102 369.999s159 137 273 137c32.667 0 64.334 -3.16699 95.001 -9.5s61 -15.833 91 -28.5v-259zM158 1485
h121l147 -219l147 219h121l-168 -371h-200z" />
    <glyph glyph-name="dcroat" unicode="&#x111;" horiz-adv-x="936" 
d="M563 842l-0.00292969 303h-209v180h209v225h262v-225h125v-180h-125v-1145h-262v143c-25.333 -54.667 -56.166 -95.5 -92.499 -122.5s-78.5 -40.5 -126.5 -40.5c-90 0 -159.667 44.167 -209 132.5s-74 213.833 -74 376.5c0 160 25.5 283.667 76.5 371
s122.5 131 214.5 131c42.667 0 81.334 -12.167 116.001 -36.5s66.334 -61.833 95.001 -112.5zM562.997 506c0 94 -9.50098 161.833 -28.501 203.5s-49.833 62.5 -92.5 62.5c-39.333 0 -67.833 -21.167 -85.5 -63.5s-26.5 -110.5 -26.5 -204.5s9.83301 -164.333 29.5 -211
s49.5 -70 89.5 -70c40.667 0 69.834 21.5 87.501 64.5s26.5 115.833 26.5 218.5z" />
    <glyph glyph-name="Gbreve" unicode="&#x11e;" horiz-adv-x="1139" 
d="M528 825l543.003 -0.000976562c0 -7.33301 0.333008 -18.5 1 -33.5s1 -26.167 1 -33.5c0 -244 -44.833 -434.333 -134.5 -571s-213.5 -205 -371.5 -205c-154 0 -276 66.833 -366 200.5s-135 315.834 -135 546.501c0 232.667 46.667 415.834 140 549.501
s220.666 200.5 381.999 200.5c109.333 0 202.166 -32 278.499 -96s132.166 -157 167.499 -279l-262 -121c-11.333 72.667 -32.833 127 -64.5 163s-73.5 54 -125.5 54c-78 0 -135.167 -37.833 -171.5 -113.5s-54.5 -194.834 -54.5 -357.501c0 -155.333 19.167 -273 57.5 -353
s94.5 -120 168.5 -120c64.667 0 115.167 27.167 151.5 81.5s54.5 130.833 54.5 229.5h-260v258zM299.003 1929l106 -0.000976562c5.33301 -52 20.833 -89.5 46.5 -112.5s64.834 -34.5 117.501 -34.5c53.333 0 93 11.5 119 34.5s41 60.5 45 112.5h106
c0 -101.333 -22.5 -177.166 -67.5 -227.499s-112.5 -75.5 -202.5 -75.5c-88.667 0 -155.834 25 -201.501 75s-68.5 124 -68.5 222v6z" />
    <glyph glyph-name="gbreve" unicode="&#x11f;" horiz-adv-x="928" 
d="M563 981h261.998v-907c0 -210 -27.833 -350.333 -83.5 -421s-156.167 -106 -301.5 -106c-114.667 0 -203.667 29.833 -267 89.5s-95 143.167 -95 250.5v15h229c0 -47.333 10.833 -82.833 32.5 -106.5s53.834 -35.5 96.501 -35.5c46.667 0 79.5 12.167 98.5 36.5
s28.5 67.5 28.5 129.5v203c-31.333 -46 -64.833 -80.667 -100.5 -104s-73.167 -35 -112.5 -35c-93.333 0 -164.833 43 -214.5 129s-74.5 210.333 -74.5 373c0 159.333 25.333 282.333 76 369s122.334 130 215.001 130c44 0 83.5 -13.167 118.5 -39.5
s65.833 -66.5 92.5 -120.5v150zM562.998 506c0 95.333 -9.33398 163.5 -28.001 204.5s-49.667 61.5 -93 61.5c-39.333 0 -67.833 -21 -85.5 -63s-26.5 -110.333 -26.5 -205c0 -94 9.83301 -164.333 29.5 -211s49.5 -70 89.5 -70c40.667 0 69.834 21.5 87.501 64.5
s26.5 115.833 26.5 218.5zM194.997 1450l106 -0.000976562c5.33301 -52 20.833 -89.5 46.5 -112.5s64.834 -34.5 117.501 -34.5c53.333 0 93 11.5 119 34.5s41 60.5 45 112.5h106c0 -101.333 -22.5 -177.166 -67.5 -227.499s-112.5 -75.5 -202.5 -75.5
c-88.667 0 -155.834 25 -201.501 75s-68.5 124 -68.5 222v6z" />
    <glyph glyph-name="Idotaccent" unicode="&#x130;" horiz-adv-x="553" 
d="M127 0v1460h297v-1460h-297zM147 1775c0 34 13.1689 64.3311 39.502 90.998s56.166 40 89.499 40c34.667 0 65.167 -13 91.5 -39s39.5 -56.667 39.5 -92s-12.833 -65.666 -38.5 -90.999s-56.5 -38 -92.5 -38c-34.667 0 -64.834 12.833 -90.501 38.5
s-38.5 55.834 -38.5 90.501z" />
    <glyph glyph-name="dotlessi" unicode="&#x131;" horiz-adv-x="483" 
d="M106 0v981h271v-981h-271z" />
    <glyph glyph-name="Lslash" unicode="&#x141;" horiz-adv-x="748" 
d="M127 0v569l-127 -90v279l127 88v614h291v-459l207 148v-279l-207 -147v-438h332v-285h-623z" />
    <glyph glyph-name="lslash" unicode="&#x142;" horiz-adv-x="512" 
d="M121 557l-121 -84v211l121 84v782h270v-659l121 86v-211l-121 -86v-680h-270v557z" />
    <glyph glyph-name="OE" unicode="&#x152;" horiz-adv-x="1479" 
d="M592 262c67.333 0 118.998 38 154.998 114s54 186.333 54 331c0 172.667 -16.667 298 -50 376s-86.333 117 -159 117c-69.333 0 -121.166 -38.833 -155.499 -116.5s-51.5 -195.167 -51.5 -352.5c0 -165.333 16.333 -284.833 49 -358.5s85.334 -110.5 158.001 -110.5z
M800.998 123c-29.333 -46 -66.499 -80.333 -111.499 -103s-97.5 -34 -157.5 -34c-134.667 0 -243.334 67.833 -326.001 203.5s-124 316.167 -124 541.5c0 238.667 43 423 129 553s208.333 195 367 195c54 0 100.5 -12 139.5 -36s70.833 -60 95.5 -108v125h602v-282h-340
v-297h295v-269h-295v-327h340v-285h-614v123z" />
    <glyph glyph-name="oe" unicode="&#x153;" horiz-adv-x="1434" 
d="M457 219c48 0 85.167 23.833 111.5 71.5s39.5 115.5 39.5 203.5c0 88.667 -13 156.5 -39 203.5s-63.333 70.5 -112 70.5s-86.167 -23.833 -112.5 -71.5s-39.5 -115.167 -39.5 -202.5c0 -88 13.167 -155.833 39.5 -203.5s63.833 -71.5 112.5 -71.5zM1157 572
c-1.33301 71.333 -14.168 124.167 -38.501 158.5s-61.166 51.5 -110.499 51.5c-48 0 -84.667 -18.167 -110 -54.5s-38 -88.5 -38 -156.5zM859.998 420.001l0.000976562 -7.99902c0 -71.333 14 -127.166 42 -167.499s66.667 -60.5 116 -60.5c30 0 55.833 9.33301 77.5 28
s39.5 46.334 53.5 83.001h233c-21.333 -98 -65.5 -174.667 -132.5 -230s-148.167 -83 -243.5 -83c-59.333 0 -111 9.16699 -155 27.5s-83.333 47.166 -118 86.499c-36.667 -38 -78.334 -66.5 -125.001 -85.5s-97.667 -28.5 -153 -28.5
c-124.667 0 -223.834 45.667 -297.501 137s-110.5 214.666 -110.5 369.999c0 156.667 36.833 280.834 110.5 372.501s172.834 137.5 297.501 137.5c59.333 0 111.833 -9.33301 157.5 -28s85.167 -47.334 118.5 -86.001c34 37.333 74 65.666 120 84.999s97.667 29 155 29
c129.333 0 226.833 -44.5 292.5 -133.5s98.5 -221.833 98.5 -398.5v-47h-537z" />
    <glyph glyph-name="Scedilla" unicode="&#x15e;" horiz-adv-x="786" 
d="M70 51l-0.00195312 303c36.667 -32 72.667 -56 108 -72s71 -24 107 -24c49.333 0 88.166 13 116.499 39s42.5 61.333 42.5 106c0 55.333 -38.333 115.333 -115 180c-21.333 18 -37.333 32 -48 42c-89.333 80 -150.666 151.833 -183.999 215.5s-50 135.834 -50 216.501
c0 126 35.5 227.833 106.5 305.5s163.833 116.5 278.5 116.5c40.667 0 80.834 -5.83301 120.501 -17.5s81.5 -29.834 125.5 -54.501v-258c-51.333 24.667 -91.166 41.667 -119.499 51s-53.5 14 -75.5 14c-42 0 -76.333 -13.167 -103 -39.5s-40 -60.833 -40 -103.5
c0 -37.333 10 -72.166 30 -104.499s66.667 -80.166 140 -143.499c98 -84 161 -153.833 189 -209.5s42 -122.834 42 -201.501c0 -132.667 -37.5 -237.5 -112.5 -314.5s-177.167 -115.5 -306.5 -115.5c-49.333 0 -94.833 5.66699 -136.5 17s-80.167 28.666 -115.5 51.999z
M154.998 -438l-0.00195312 129c42.667 -14 82.167 -24.667 118.5 -32s67.166 -11 92.499 -11c28.667 0 50.167 6.16699 64.5 18.5s21.5 30.5 21.5 54.5c0 24.667 -8.66699 42.5 -26 53.5s-44.666 16.5 -81.999 16.5c-10.667 0 -19.167 -0.166992 -25.5 -0.5
s-12.166 -0.833008 -17.499 -1.5v211h96v-90h12c66 0 115.667 -16 149 -48s50 -79.667 50 -143c0 -66.667 -19 -116.667 -57 -150s-94.667 -50 -170 -50c-28.667 0 -62.167 3.66699 -100.5 11s-80.166 18 -125.499 32z" />
    <glyph glyph-name="scedilla" unicode="&#x15f;" horiz-adv-x="686" 
d="M27 84l112.001 198.999c33.333 -22 62.333 -38.167 87 -48.5s47 -15.5 67 -15.5c20.667 0 37.834 6.66699 51.501 20s20.5 30 20.5 50c0 34.667 -33.333 72.667 -100 114l-40 25c-64 43.333 -109 85.5 -135 126.5s-39 89.5 -39 145.5c0 92 28.667 164.833 86 218.5
s134.666 80.5 231.999 80.5c48.667 0 95.167 -6.83301 139.5 -20.5s87.166 -34.834 128.499 -63.501l-115 -194c-26 22 -50.167 38.333 -72.5 49s-43.166 16 -62.499 16c-22 0 -39.833 -6 -53.5 -18s-20.5 -27.667 -20.5 -47c0 -28.667 31 -62 93 -100
c19.333 -12 34.333 -21.667 45 -29c69.333 -48 117.666 -93.5 144.999 -136.5s41 -93.833 41 -152.5c0 -95.333 -31.333 -172.666 -94 -231.999s-144.667 -89 -246 -89c-49.333 0 -96.333 8.33301 -141 25s-87.667 42.334 -129 77.001zM106.001 -438.001l-0.00195312 129
c42.667 -14 82.167 -24.667 118.5 -32s67.166 -11 92.499 -11c28.667 0 50.167 6.16699 64.5 18.5s21.5 30.5 21.5 54.5c0 24.667 -8.66699 42.5 -26 53.5s-44.666 16.5 -81.999 16.5c-10.667 0 -19.167 -0.166992 -25.5 -0.5s-12.166 -0.833008 -17.499 -1.5v211h96v-90h12
c66 0 115.667 -16 149 -48s50 -79.667 50 -143c0 -66.667 -19 -116.667 -57 -150s-94.667 -50 -170 -50c-28.667 0 -62.167 3.66699 -100.5 11s-80.166 18 -125.499 32z" />
    <glyph glyph-name="Scaron" unicode="&#x160;" horiz-adv-x="786" 
d="M70 51l-0.00195312 303c36.667 -32 72.667 -56 108 -72s71 -24 107 -24c49.333 0 88.166 13 116.499 39s42.5 61.333 42.5 106c0 55.333 -38.333 115.333 -115 180c-21.333 18 -37.333 32 -48 42c-89.333 80 -150.666 151.833 -183.999 215.5s-50 135.834 -50 216.501
c0 126 35.5 227.833 106.5 305.5s163.833 116.5 278.5 116.5c40.667 0 80.834 -5.83301 120.501 -17.5s81.5 -29.834 125.5 -54.501v-258c-51.333 24.667 -91.166 41.667 -119.499 51s-53.5 14 -75.5 14c-42 0 -76.333 -13.167 -103 -39.5s-40 -60.833 -40 -103.5
c0 -37.333 10 -72.166 30 -104.499s66.667 -80.166 140 -143.499c98 -84 161 -153.833 189 -209.5s42 -122.834 42 -201.501c0 -132.667 -37.5 -237.5 -112.5 -314.5s-177.167 -115.5 -306.5 -115.5c-49.333 0 -94.833 5.66699 -136.5 17s-80.167 28.666 -115.5 51.999z
M124.998 1964h121l147 -219l147 219h121l-168 -371h-200z" />
    <glyph glyph-name="scaron" unicode="&#x161;" horiz-adv-x="686" 
d="M27 84l112.001 198.999c33.333 -22 62.333 -38.167 87 -48.5s47 -15.5 67 -15.5c20.667 0 37.834 6.66699 51.501 20s20.5 30 20.5 50c0 34.667 -33.333 72.667 -100 114l-40 25c-64 43.333 -109 85.5 -135 126.5s-39 89.5 -39 145.5c0 92 28.667 164.833 86 218.5
s134.666 80.5 231.999 80.5c48.667 0 95.167 -6.83301 139.5 -20.5s87.166 -34.834 128.499 -63.501l-115 -194c-26 22 -50.167 38.333 -72.5 49s-43.166 16 -62.499 16c-22 0 -39.833 -6 -53.5 -18s-20.5 -27.667 -20.5 -47c0 -28.667 31 -62 93 -100
c19.333 -12 34.333 -21.667 45 -29c69.333 -48 117.666 -93.5 144.999 -136.5s41 -93.833 41 -152.5c0 -95.333 -31.333 -172.666 -94 -231.999s-144.667 -89 -246 -89c-49.333 0 -96.333 8.33301 -141 25s-87.667 42.334 -129 77.001zM76.001 1485h121l147 -219l147 219
h121l-168 -371h-200z" />
    <glyph glyph-name="Ydieresis" unicode="&#x178;" horiz-adv-x="801" 
d="M254 0v686l-338 774h307l96 -264c18 -47.333 34.333 -94.5 49 -141.5s28.667 -94.833 42 -143.5c12 54 25 104.333 39 151s28.333 88.667 43 126l106 272h285l-340 -774v-686h-289zM118 1775c0 32 12 59.8311 36 83.498s51.667 35.5 83 35.5
c32.667 0 61 -11.833 85 -35.5s36 -51.5 36 -83.5c0 -33.333 -11.667 -61.666 -35 -84.999s-52 -35 -86 -35c-32.667 0 -60.667 11.833 -84 35.5s-35 51.834 -35 84.501zM446 1775c0 32 11.833 59.8311 35.5 83.498s51.5 35.5 83.5 35.5c32.667 0 61 -11.833 85 -35.5
s36 -51.5 36 -83.5c0 -33.333 -11.667 -61.666 -35 -84.999s-52 -35 -86 -35c-32.667 0 -60.667 11.833 -84 35.5s-35 51.834 -35 84.501z" />
    <glyph glyph-name="Zcaron" unicode="&#x17d;" horiz-adv-x="877" 
d="M-16 0l471 1192h-402v268h795l-465 -1175h424v-285h-823zM170 1964h121l147 -219l147 219h121l-168 -371h-200z" />
    <glyph glyph-name="zcaron" unicode="&#x17e;" horiz-adv-x="674" 
d="M18 0l283 762h-260v219h610l-278 -745h258v-236h-613zM70 1485h121l147 -219l147 219h121l-168 -371h-200z" />
    <glyph glyph-name="florin" unicode="&#x192;" 
d="M295 670h-170l33 213h172l49 315c15.333 97.333 47 168.166 95 212.499s116.667 66.5 206 66.5c24.667 0 50.334 -2.16699 77.001 -6.5s55 -10.5 85 -18.5l-37 -231l-15 3c-30.667 6 -51 9 -61 9c-24.667 0 -43 -7.66699 -55 -23s-21.667 -47.333 -29 -96l-37 -231h178
l-32 -213h-179l-114 -719c-22.667 -146.667 -56.334 -251 -101.001 -313s-107.334 -93 -188.001 -93c-24 0 -50.667 2.33301 -80 7s-60.666 11.334 -93.999 20.001l35 227c14.667 -4 25.667 -6.66699 33 -8s14 -2 20 -2c26.667 0 46.5 8.5 59.5 25.5
s23.833 54.833 32.5 113.5z" />
    <glyph glyph-name="circumflex" unicode="&#x2c6;" horiz-adv-x="1024" 
d="M244 1114l168 371h200l168 -371h-121l-147 217l-147 -217h-121z" />
    <glyph glyph-name="caron" unicode="&#x2c7;" horiz-adv-x="1024" 
d="M244 1485h121l147 -219l147 219h121l-168 -371h-200z" />
    <glyph glyph-name="breve" unicode="&#x2d8;" horiz-adv-x="1024" 
d="M242 1450l106 -0.000976562c5.33301 -52 20.833 -89.5 46.5 -112.5s64.834 -34.5 117.501 -34.5c53.333 0 93 11.5 119 34.5s41 60.5 45 112.5h106c0 -101.333 -22.5 -177.166 -67.5 -227.499s-112.5 -75.5 -202.5 -75.5c-88.667 0 -155.834 25 -201.501 75
s-68.5 124 -68.5 222v6z" />
    <glyph glyph-name="dotaccent" unicode="&#x2d9;" horiz-adv-x="1024" 
d="M383 1296c0 34 13.1689 64.3311 39.502 90.998s56.166 40 89.499 40c34.667 0 65.167 -13 91.5 -39s39.5 -56.667 39.5 -92s-12.833 -65.666 -38.5 -90.999s-56.5 -38 -92.5 -38c-34.667 0 -64.834 12.833 -90.501 38.5s-38.5 55.834 -38.5 90.501z" />
    <glyph glyph-name="ring" unicode="&#x2da;" horiz-adv-x="1024" 
d="M387 1360c0 -36 11.833 -65.833 35.5 -89.5s53.5 -35.5 89.5 -35.5c35.333 0 65.333 12 90 36s37 53.667 37 89c0 34.667 -12.5 64.5 -37.5 89.5s-54.833 37.5 -89.5 37.5s-64.167 -12.333 -88.5 -37s-36.5 -54.667 -36.5 -90zM248 1362c0 74 25.501 136.5 76.501 187.5
s113.5 76.5 187.5 76.5c74.667 0 137.667 -25.5 189 -76.5s77 -113.5 77 -187.5c0 -74.667 -25.667 -137.667 -77 -189s-114.333 -77 -189 -77s-137.334 25.5 -188.001 76.5s-76 114.167 -76 189.5z" />
    <glyph glyph-name="ogonek" unicode="&#x2db;" horiz-adv-x="1024" 
d="M616 0c-36 -32.667 -63.334 -66.499 -82.001 -101.499s-28 -69.5 -28 -103.5c0 -28.667 5.83301 -49.167 17.5 -61.5s31.834 -18.5 60.501 -18.5h78v-174h-93c-68 0 -119.5 15.5 -154.5 46.5s-52.5 77.167 -52.5 138.5c0 47.333 13.167 92.666 39.5 135.999
s68.5 89.333 126.5 138h88z" />
    <glyph glyph-name="tilde" unicode="&#x2dc;" horiz-adv-x="1024" 
d="M780 1436c-11.333 -85.333 -31.1641 -147.334 -59.4971 -186.001s-67.166 -58 -116.499 -58c-9.33301 0 -19 0.833008 -29 2.5s-20.667 4.16699 -32 7.5l-76 27c-9.33301 3.33301 -18.833 5.83301 -28.5 7.5s-18.5 2.5 -26.5 2.5c-18.667 0 -33.834 -6 -45.501 -18
s-21.167 -32 -28.5 -60h-94c13.333 80 34.166 139.333 62.499 178s65.5 58 111.5 58c10.667 0 22.167 -1.16699 34.5 -3.5s25.5 -6.16602 39.5 -11.499l75 -24c7.33301 -2.66699 14.666 -4.66699 21.999 -6s14.333 -2 21 -2c20 0 36.167 6.66699 48.5 20
s22.166 35.333 29.499 66h92z" />
    <glyph glyph-name="hungarumlaut" unicode="&#x2dd;" horiz-adv-x="1024" 
d="M563 1114l131 371h217l-233 -371h-115zM313 1114l95 371h208l-196 -371h-107z" />
    <glyph glyph-name="Omega" unicode="&#x3a9;" horiz-adv-x="1569" 
d="M1194 213l305 0.00195312v-213h-602v229c106.667 62.667 187.334 144.167 242.001 244.5s82 217.5 82 351.5c0 140 -40.333 253.833 -121 341.5s-186 131.5 -316 131.5c-131.333 0 -236.833 -44.167 -316.5 -132.5s-119.5 -205.833 -119.5 -352.5
c0 -127.333 28 -241.333 84 -342s136 -181.334 240 -242.001v-229h-602v213h305c-96 86.667 -166.5 178 -211.5 274s-67.5 203.333 -67.5 322c0 209.333 63.5 378.666 190.5 507.999s292.833 194 497.5 194c202 0 367.333 -64.167 496 -192.5s193 -292.833 193 -493.5
c0 -126.667 -21.833 -237.667 -65.5 -333s-114.834 -188.333 -213.501 -279z" />
    <glyph glyph-name="pi" unicode="&#x3c0;" horiz-adv-x="1368" 
d="M360 889l-44.999 0.000976562c-36 0 -63.833 -10.5 -83.5 -31.5s-32.834 -54.167 -39.501 -99.5h-174c18.667 124.667 52 209.667 100 255s128.667 68 242 68h953l-39 -192h-193l-84 -437c-1.33301 -8.66699 -4 -22.334 -8 -41.001
c-14.667 -75.333 -22 -124.333 -22 -147c0 -38.667 7.66699 -66 23 -82s41 -24 77 -24c12 0 26.167 0.833008 42.5 2.5s36.166 4.16699 59.499 7.5l-34 -168c-19.333 -5.33301 -39.666 -9.33301 -60.999 -12s-46.333 -4 -75 -4c-92.667 0 -160.167 16 -202.5 48
s-63.5 83.333 -63.5 154c0 51.333 17.333 166 52 344l1 6l70 353h-268l-174 -889h-226z" />
    <glyph glyph-name="endash" unicode="&#x2013;" horiz-adv-x="1024" 
d="M0 367v247h1024v-247h-1024z" />
    <glyph glyph-name="emdash" unicode="&#x2014;" horiz-adv-x="2048" 
d="M0 367v247h2048v-247h-2048z" />
    <glyph glyph-name="quoteleft" unicode="&#x2018;" horiz-adv-x="516" 
d="M33 854l248 606h202l-164 -606h-286z" />
    <glyph glyph-name="quoteright" unicode="&#x2019;" horiz-adv-x="516" 
d="M33 854l164 606h286l-247 -606h-203z" />
    <glyph glyph-name="quotesinglbase" unicode="&#x201a;" horiz-adv-x="516" 
d="M33 -281l164 607h286l-247 -607h-203z" />
    <glyph glyph-name="quotedblleft" unicode="&#x201c;" 
d="M868 1460l-163 -606h-289l250 606h202zM483 1460l-164 -606h-286l248 606h202z" />
    <glyph glyph-name="quotedblright" unicode="&#x201d;" 
d="M33 854l162 606h288l-247 -606h-203zM416 854l164 606h288l-247 -606h-205z" />
    <glyph glyph-name="quotedblbase" unicode="&#x201e;" 
d="M33 -281l162 607h288l-247 -607h-203zM416 -281l164 607h288l-247 -607h-205z" />
    <glyph glyph-name="dagger" unicode="&#x2020;" 
d="M313 -395v1134h-252v256h252v465h275v-465h252v-256h-252v-1134h-275z" />
    <glyph glyph-name="daggerdbl" unicode="&#x2021;" 
d="M317 -395v432h-266v252h266v497h-266v252h266v422h267v-422h264v-252h-264v-497h264v-252h-264v-432h-267z" />
    <glyph glyph-name="bullet" unicode="&#x2022;" horiz-adv-x="1208" 
d="M307 762c0 82 28.999 151.666 86.999 208.999s128 86 210 86c81.333 0 150.833 -28.833 208.5 -86.5s86.5 -127.167 86.5 -208.5s-29.167 -151.166 -87.5 -209.499s-128.166 -87.5 -209.499 -87.5c-82 0 -151.667 29 -209 87s-86 128 -86 210z" />
    <glyph glyph-name="ellipsis" unicode="&#x2026;" horiz-adv-x="2048" 
d="M518 166c0 -50.667 -16.833 -93 -50.5 -127s-75.5 -51 -125.5 -51c-49.333 0 -91 17 -125 51s-51 76.333 -51 127c0 50 17 91.833 51 125.5s75.667 50.5 125 50.5s91 -16.833 125 -50.5s51 -75.5 51 -125.5zM1200 166c0 -50.667 -16.833 -93 -50.5 -127
s-75.5 -51 -125.5 -51c-49.333 0 -91 17 -125 51s-51 76.333 -51 127c0 50 17 91.833 51 125.5s75.667 50.5 125 50.5s91 -16.833 125 -50.5s51 -75.5 51 -125.5zM1884 166c0 -50.667 -16.833 -93 -50.5 -127s-75.5 -51 -125.5 -51c-49.333 0 -91 17 -125 51
s-51 76.333 -51 127c0 50 17 91.833 51 125.5s75.667 50.5 125 50.5s91 -16.833 125 -50.5s51 -75.5 51 -125.5z" />
    <glyph glyph-name="perthousand" unicode="&#x2030;" horiz-adv-x="2361" 
d="M385 -18l725 1497h162l-721 -1497h-166zM1909 418c0 -98.667 6.5 -165.667 19.5 -201s35.833 -53 68.5 -53c31.333 0 53.5 17.667 66.5 53s19.5 102.333 19.5 201c0 100 -6.5 168 -19.5 204s-35.833 54 -68.5 54c-32 0 -54.333 -18 -67 -54s-19 -104 -19 -204zM2286 420
c0 -142.667 -25.001 -251.333 -75.001 -326s-122 -112 -216 -112s-166 37.5 -216 112.5s-75 183.5 -75 325.5c0 142.667 24.833 251.667 74.5 327s121.834 113 216.501 113c94 0 166 -37.667 216 -113s75 -184.333 75 -327zM1212 418.001
c0 -100.667 6.33301 -168.167 19 -202.5s35 -51.5 67 -51.5c32.667 0 55.5 18.167 68.5 54.5s19.5 102.833 19.5 199.5c0 100 -6.5 168 -19.5 204s-35.833 54 -68.5 54c-31.333 0 -53.5 -18 -66.5 -54s-19.5 -104 -19.5 -204zM1589 420.001
c0 -142.667 -24.833 -251.333 -74.5 -326s-121.834 -112 -216.501 -112c-93.333 0 -165 37.5 -215 112.5s-75 183.5 -75 325.5c0 142.667 24.833 251.667 74.5 327s121.5 113 215.5 113c94.667 0 166.834 -37.5 216.501 -112.5s74.5 -184.167 74.5 -327.5zM275.999 1042
c0 -98.667 6.66699 -165.667 20 -201s36.333 -53 69 -53c31.333 0 53.5 17.833 66.5 53.5s19.5 102.5 19.5 200.5c0 102 -6.33301 170.167 -19 204.5s-35 51.5 -67 51.5c-32.667 0 -55.667 -18.167 -69 -54.5s-20 -103.5 -20 -201.5zM654.999 1038
c0 -142.667 -24.834 -251.333 -74.501 -326s-121.5 -112 -215.5 -112s-166 37.5 -216 112.5s-75 183.5 -75 325.5c0 142.667 24.833 251.834 74.5 327.501s121.834 113.5 216.501 113.5c94 0 165.833 -37.833 215.5 -113.5s74.5 -184.834 74.5 -327.501z" />
    <glyph glyph-name="guilsinglleft" unicode="&#x2039;" horiz-adv-x="463" 
d="M432 135l-149 -84l-252 449l252 428l149 -84l-199 -344z" />
    <glyph glyph-name="guilsinglright" unicode="&#x203a;" horiz-adv-x="463" 
d="M31 135l196 365l-196 344l149 84l252 -428l-252 -449z" />
    <glyph glyph-name="franc" unicode="&#x20a3;" horiz-adv-x="1386" 
d="M115 0v1460h630v-270h-348v-303h318v-269h-318v-618h-282zM899 0v980.999h252v-174c22 64 51.333 111.833 88 143.5s81 47.834 133 48.501v-258h-18c-71.333 0 -119.833 -16.833 -145.5 -50.5s-38.5 -110.167 -38.5 -229.5v-461h-271z" />
    <glyph glyph-name="trademark" unicode="&#x2122;" horiz-adv-x="1706" 
d="M809 1460h170l141 -360l133 360h170v-542h-114v428l-160 -428h-59l-166 428v-428h-115v542zM225 1460h467v-94h-168v-448h-129v448h-170v94z" />
    <glyph glyph-name="partialdiff" unicode="&#x2202;" horiz-adv-x="1075" 
d="M758 639c11.333 68.667 20.0029 130.832 26.0029 186.499s9 104.834 9 147.501c0 80 -9.66699 138.167 -29 174.5s-50 54.5 -92 54.5c-41.333 0 -90.333 -19.5 -147 -58.5s-97.334 -58.5 -122.001 -58.5s-46.167 8.66699 -64.5 26s-27.5 37.333 -27.5 60
c0 44 26.333 82.333 79 115s119.334 49 200.001 49c117.333 0 213.166 -53 287.499 -159s111.5 -246.667 111.5 -422c0 -225.333 -50 -411.5 -150 -558.5s-225.333 -220.5 -376 -220.5c-107.333 0 -196 37.333 -266 112s-105 170 -105 286
c0 128.667 37.667 236.167 113 322.5s168 129.5 278 129.5c67.333 0 123.166 -15 167.499 -45s80.166 -77 107.499 -141zM705.003 503.998c0 77.333 -13.667 136.833 -41 178.5s-66.333 62.5 -117 62.5c-70 0 -128.167 -43.833 -174.5 -131.5s-69.5 -200.167 -69.5 -337.5
c0 -77.333 13.5 -136.5 40.5 -177.5s66.167 -61.5 117.5 -61.5c70 0 128.167 44.167 174.5 132.5s69.5 199.833 69.5 334.5z" />
    <glyph glyph-name="Delta" unicode="&#x2206;" horiz-adv-x="1395" 
d="M698 1196l-379 -983h756zM569 1473h256l574 -1473h-1403z" />
    <glyph glyph-name="product" unicode="&#x220f;" horiz-adv-x="1579" 
d="M154 1473h1267v-1866h-286v1622h-695v-1622h-286v1866z" />
    <glyph glyph-name="summation" unicode="&#x2211;" horiz-adv-x="1421" 
d="M61 1473h1280v-226h-921l647 -684l-661 -729h974v-227h-1347v160l712 786l-684 719v201z" />
    <glyph glyph-name="minus" unicode="&#x2212;" horiz-adv-x="1706" 
d="M254 696h1198v-170h-1198v170z" />
    <glyph glyph-name="fraction" unicode="&#x2215;" horiz-adv-x="342" 
d="M-342 -18l854 1497h170l-854 -1497h-170z" />
    <glyph glyph-name="periodcentered" unicode="&#x2219;" horiz-adv-x="451" 
d="M401 729c0 -50 -16.833 -91.833 -50.5 -125.5s-75.5 -50.5 -125.5 -50.5s-91.833 16.667 -125.5 50s-50.5 75.333 -50.5 126c0 50 17 91.833 51 125.5s75.667 50.5 125 50.5s91 -16.833 125 -50.5s51 -75.5 51 -125.5z" />
    <glyph glyph-name="radical" unicode="&#x221a;" horiz-adv-x="1323" 
d="M1128 1675h197v-110h-108l-594 -1606h-82l-316 872l-131 -49l-28 95l305 108l247 -688z" />
    <glyph glyph-name="infinity" unicode="&#x221e;" horiz-adv-x="1706" 
d="M928 559c30 -54 66.5 -94.832 109.5 -122.499s91.833 -41.5 146.5 -41.5c64.667 0 117.667 20.5 159 61.5s62 93.5 62 157.5c0 63.333 -19 116.166 -57 158.499s-85.333 63.5 -142 63.5c-52 0 -99.333 -21.167 -142 -63.5s-88 -113.5 -136 -213.5zM780 662.001
c-30.667 54 -67.668 95.001 -111.001 123.001s-91.666 42 -144.999 42c-65.333 0 -118.5 -20.667 -159.5 -62s-61.5 -94.333 -61.5 -159c0 -62.667 18.833 -114.834 56.5 -156.501s84.5 -62.5 140.5 -62.5c53.333 0 101.5 20.833 144.5 62.5s88.167 112.5 135.5 212.5z
M861.999 471.002c-47.333 -90 -96.832 -155.83 -148.499 -197.497s-109.167 -62.5 -172.5 -62.5c-91.333 0 -168.833 38.167 -232.5 114.5s-95.5 171.166 -95.5 284.499c0 119.333 28.333 215.833 85 289.5s130 110.5 220 110.5c62 0 118.167 -20 168.5 -60
s102.833 -106.667 157.5 -200c47.333 92.667 97.166 159.5 149.499 200.5s113.833 61.5 184.5 61.5c84.667 0 158.667 -38.667 222 -116s95 -172 95 -284c0 -118.667 -28.167 -214.834 -84.5 -288.501s-129.833 -110.5 -220.5 -110.5c-61.333 0 -116.833 19.167 -166.5 57.5
s-103.5 105.166 -161.5 200.499z" />
    <glyph glyph-name="integral" unicode="&#x222b;" horiz-adv-x="1120" 
d="M324 -258c70.667 0 111.332 230.669 121.999 692.002l3 123c8.66699 358.667 46.334 614.167 113.001 766.5s170.667 228.5 312 228.5c58 0 105.667 -15.167 143 -45.5s56 -67.5 56 -111.5c0 -40.667 -11.333 -72.334 -34 -95.001s-54.334 -34 -95.001 -34
c-30 0 -54.833 7.5 -74.5 22.5s-33.167 36.833 -40.5 65.5c-2.66699 11.333 -4.66699 26.333 -6 45c-2 26.667 -10.667 40.334 -26 41.001c-67.333 0 -107 -205 -119 -615c-3.33301 -107.333 -6 -190.333 -8 -249c-6.66699 -186.667 -16.834 -329 -30.501 -427
s-33.5 -179.667 -59.5 -245c-36.667 -90.667 -83.167 -159.167 -139.5 -205.5s-121.166 -69.5 -194.499 -69.5c-58 0 -105.333 14.667 -142 44s-55 66.666 -55 111.999c0 42 11.833 74.333 35.5 97s56.834 34 99.501 34c26 0 48 -6 66 -18s31.667 -30 41 -54
c4 -10.667 7 -30.334 9 -59.001s10 -43 24 -43z" />
    <glyph glyph-name="approxequal" unicode="&#x2248;" horiz-adv-x="1706" 
d="M1530 592l0.00195312 -185.999c-71.333 -48.667 -138 -84.167 -200 -106.5s-125 -33.5 -189 -33.5c-59.333 0 -152.5 22.167 -279.5 66.5s-226.5 66.5 -298.5 66.5c-56 0 -113.833 -12 -173.5 -36s-130.167 -64.333 -211.5 -121v184c74.667 50 143.5 86.667 206.5 110
s123.167 35 180.5 35c78.667 0 181.667 -22.5 309 -67.5s219.666 -67.5 276.999 -67.5c55.333 0 112.666 12.167 171.999 36.5s128.333 64.166 207 119.499zM1530 979.001l0.00390625 -184c-72.667 -50 -139.834 -86.167 -201.501 -108.5s-124.167 -33.5 -187.5 -33.5
c-58.667 0 -151.5 22.5 -278.5 67.5s-226.833 67.5 -299.5 67.5c-54.667 0 -111.334 -11.667 -170.001 -35s-130.334 -64 -215.001 -122v184c72.667 48.667 141 85.167 205 109.5s124.667 36.5 182 36.5c80 0 183.333 -22.667 310 -68s216 -68 268 -68
c61.333 0 121.666 11.667 180.999 35s128 63 206 119z" />
    <glyph glyph-name="notequal" unicode="&#x2260;" horiz-adv-x="1706" 
d="M1204 1212l123 -100l-170 -215h295v-162h-403l-197 -250h600v-161h-707l-249 -314l-123 99l170 215h-289v161h393l199 250h-592v162h700z" />
    <glyph glyph-name="lessequal" unicode="&#x2264;" horiz-adv-x="1706" 
d="M260 178h1186v-166h-1186v166zM1446 1223v-176l-889 -287l889 -287v-176l-1186 389v145z" />
    <glyph glyph-name="greaterequal" unicode="&#x2265;" horiz-adv-x="1706" 
d="M260 178h1188v-166h-1188v166zM260 1223l1186 -392v-145l-1186 -389v176l891 287l-891 287v176z" />
    <glyph glyph-name="lozenge" unicode="&#x25ca;" horiz-adv-x="1012" 
d="M506 1409l-385 -817l385 -825l385 825zM506 1653l500 -1061l-500 -1069l-500 1069z" />
    <glyph glyph-name="apple" unicode="&#xf000;" horiz-adv-x="1618" 
d="M836 1216c-0.666992 4 -1.16699 8.66895 -1.5 14.002s-0.5 13 -0.5 23c0 82.667 31.667 159.167 95 229.5s142 114.166 236 131.499c0.666992 -6.66699 1.16699 -14.334 1.5 -23.001s0.5 -21.667 0.5 -39c0 -87.333 -34.5 -165.5 -103.5 -234.5
s-136.833 -103.5 -203.5 -103.5h-8c-2 0 -4.5 0.333008 -7.5 1s-5.83301 1 -8.5 1zM1505 403.002c-76 -164.667 -144.336 -278.834 -205.003 -342.501s-128.667 -95.5 -204 -95.5c-33.333 0 -77.166 11 -131.499 33s-95.166 33 -122.499 33c-30 0 -73.667 -11 -131 -33
s-99.666 -33 -126.999 -33c-42.667 0 -85.5 14.667 -128.5 44s-86.167 73.333 -129.5 132c-68 93.333 -120.5 191.833 -157.5 295.5s-55.5 203.834 -55.5 300.501c0 146 41.667 264.833 125 356.5s191 137.5 323 137.5c45.333 0 97 -11.333 155 -34s99.333 -34 124 -34
c22.667 0 63.167 11.667 121.5 35s109.166 35 152.499 35c73.333 0 139.333 -13.333 198 -40s112.334 -68 161.001 -124c-68 -43.333 -118.5 -91.833 -151.5 -145.5s-49.5 -114.5 -49.5 -182.5c0 -75.333 20 -142 60 -200s97.667 -104 173 -138z" />
    <glyph glyph-name="fi" unicode="&#xf001;" horiz-adv-x="981" 
d="M584 1243c0 44.667 14.833 82.168 44.5 112.501s66.5 45.5 110.5 45.5c43.333 0 80.166 -15.333 110.499 -46s45.5 -68 45.5 -112c0 -42.667 -15.167 -78.834 -45.5 -108.501s-67.166 -44.5 -110.499 -44.5c-44 0 -80.833 14.5 -110.5 43.5s-44.5 65.5 -44.5 109.5z
M606 0.000976562v981h268v-981h-268zM512 1558v-229.999c-4 0 -8.33301 0.166992 -13 0.5s-10.667 0.5 -18 0.5c-34 0 -57.167 -9.33301 -69.5 -28s-18.5 -70 -18.5 -154v-166h119v-207h-119v-774h-270v774h-98v207h98v260c0 66 4 115.167 12 147.5s21.667 61.166 41 86.499
c24.667 30.667 56.5 54 95.5 70s84.5 24 136.5 24c12.667 0 27.5 -0.833008 44.5 -2.5s36.833 -4.5 59.5 -8.5z" />
    <glyph glyph-name="fl" unicode="&#xf002;" horiz-adv-x="981" 
d="M606 0v1550h268v-1550h-268zM512 1558v-229.999c-4 0 -8.33301 0.166992 -13 0.5s-10.667 0.5 -18 0.5c-34 0 -57.167 -9.33301 -69.5 -28s-18.5 -70 -18.5 -154v-166h119v-207h-119v-774h-270v774h-98v207h98v260c0 66 4 115.167 12 147.5s21.667 61.166 41 86.499
c24.667 30.667 56.5 54 95.5 70s84.5 24 136.5 24c12.667 0 27.5 -0.833008 44.5 -2.5s36.833 -4.5 59.5 -8.5z" />
    <glyph glyph-name=".null" horiz-adv-x="0" 
 />
    <glyph glyph-name="nonmarkingreturn" horiz-adv-x="451" 
 />
    </font>
</defs>
</svg>
